<?xml version="1.0" encoding="UTF-8" standalone="no"?>
<!DOCTYPE svg PUBLIC "-//W3C//DTD SVG 1.1//EN" "http://www.w3.org/Graphics/SVG/1.1/DTD/svg11.dtd">
<svg width="100%" height="100%" viewBox="0 0 300 300" version="1.1" xmlns="http://www.w3.org/2000/svg" xmlns:xlink="http://www.w3.org/1999/xlink" xml:space="preserve" xmlns:serif="http://www.serif.com/" style="fill-rule:evenodd;clip-rule:evenodd;stroke-linejoin:round;stroke-miterlimit:2;">
    <g>
        <g transform="matrix(1.00224,0,0,1.00789,0.336323,0)">
            <rect x="-0.336" y="0" width="299.329" height="297.651" style="fill:rgb(213,255,213);"/>
        </g>
        <g transform="matrix(1,0,0,1,13.5,13.5)">
            <g transform="matrix(1,0,0,1,0,90)">
                <g transform="matrix(0.6,0,0,0.6,201,-24)">
                    <circle cx="17.5" cy="42.5" r="2.5" style="fill:rgb(51,154,51);"/>
                </g>
                <g transform="matrix(0.6,0,0,0.6,81,-24)">
                    <circle cx="17.5" cy="42.5" r="2.5" style="fill:rgb(51,154,51);"/>
                </g>
                <g transform="matrix(0.6,0,0,0.6,141,-24)">
                    <circle cx="17.5" cy="42.5" r="2.5" style="fill:rgb(51,154,51);"/>
                </g>
                <g transform="matrix(0.6,0,0,0.6,21,-24)">
                    <circle cx="17.5" cy="42.5" r="2.5" style="fill:rgb(51,154,51);"/>
                </g>
                <g transform="matrix(0.6,0,0,0.6,261,-24)">
                    <circle cx="17.5" cy="42.5" r="2.5" style="fill:rgb(51,154,51);"/>
                </g>
                <g transform="matrix(0.6,0,0,0.6,171,-24)">
                    <circle cx="17.5" cy="42.5" r="2.5" style="fill:rgb(51,154,51);"/>
                </g>
                <g transform="matrix(0.6,0,0,0.6,51,-24)">
                    <circle cx="17.5" cy="42.5" r="2.5" style="fill:rgb(51,154,51);"/>
                </g>
                <g transform="matrix(0.6,0,0,0.6,111,-24)">
                    <circle cx="17.5" cy="42.5" r="2.5" style="fill:rgb(51,154,51);"/>
                </g>
                <g transform="matrix(0.6,0,0,0.6,-9,-24)">
                    <circle cx="17.5" cy="42.5" r="2.5" style="fill:rgb(51,154,51);"/>
                </g>
                <g transform="matrix(0.6,0,0,0.6,231,-24)">
                    <circle cx="17.5" cy="42.5" r="2.5" style="fill:rgb(51,154,51);"/>
                </g>
            </g>
            <g transform="matrix(1,0,0,1,0,210)">
                <g transform="matrix(0.6,0,0,0.6,201,-24)">
                    <circle cx="17.5" cy="42.5" r="2.5" style="fill:rgb(51,154,51);"/>
                </g>
                <g transform="matrix(0.6,0,0,0.6,81,-24)">
                    <circle cx="17.5" cy="42.5" r="2.5" style="fill:rgb(51,154,51);"/>
                </g>
                <g transform="matrix(0.6,0,0,0.6,141,-24)">
                    <circle cx="17.5" cy="42.5" r="2.5" style="fill:rgb(51,154,51);"/>
                </g>
                <g transform="matrix(0.6,0,0,0.6,21,-24)">
                    <circle cx="17.5" cy="42.5" r="2.5" style="fill:rgb(51,154,51);"/>
                </g>
                <g transform="matrix(0.6,0,0,0.6,261,-24)">
                    <circle cx="17.5" cy="42.5" r="2.5" style="fill:rgb(51,154,51);"/>
                </g>
                <g transform="matrix(0.6,0,0,0.6,171,-24)">
                    <circle cx="17.5" cy="42.5" r="2.5" style="fill:rgb(51,154,51);"/>
                </g>
                <g transform="matrix(0.6,0,0,0.6,51,-24)">
                    <circle cx="17.5" cy="42.5" r="2.5" style="fill:rgb(51,154,51);"/>
                </g>
                <g transform="matrix(0.6,0,0,0.6,111,-24)">
                    <circle cx="17.5" cy="42.5" r="2.5" style="fill:rgb(51,154,51);"/>
                </g>
                <g transform="matrix(0.6,0,0,0.6,-9,-24)">
                    <circle cx="17.5" cy="42.5" r="2.5" style="fill:rgb(51,154,51);"/>
                </g>
                <g transform="matrix(0.6,0,0,0.6,231,-24)">
                    <circle cx="17.5" cy="42.5" r="2.5" style="fill:rgb(51,154,51);"/>
                </g>
            </g>
            <g transform="matrix(1,0,0,1,0,30)">
                <g transform="matrix(0.6,0,0,0.6,201,-24)">
                    <circle cx="17.5" cy="42.5" r="2.5" style="fill:rgb(51,154,51);"/>
                </g>
                <g transform="matrix(0.6,0,0,0.6,81,-24)">
                    <circle cx="17.5" cy="42.5" r="2.5" style="fill:rgb(51,154,51);"/>
                </g>
                <g transform="matrix(0.6,0,0,0.6,141,-24)">
                    <circle cx="17.5" cy="42.5" r="2.5" style="fill:rgb(51,154,51);"/>
                </g>
                <g transform="matrix(0.6,0,0,0.6,21,-24)">
                    <circle cx="17.5" cy="42.5" r="2.5" style="fill:rgb(51,154,51);"/>
                </g>
                <g transform="matrix(0.6,0,0,0.6,261,-24)">
                    <circle cx="17.5" cy="42.5" r="2.5" style="fill:rgb(51,154,51);"/>
                </g>
                <g transform="matrix(0.6,0,0,0.6,171,-24)">
                    <circle cx="17.5" cy="42.5" r="2.5" style="fill:rgb(51,154,51);"/>
                </g>
                <g transform="matrix(0.6,0,0,0.6,51,-24)">
                    <circle cx="17.5" cy="42.5" r="2.5" style="fill:rgb(51,154,51);"/>
                </g>
                <g transform="matrix(0.6,0,0,0.6,111,-24)">
                    <circle cx="17.5" cy="42.5" r="2.5" style="fill:rgb(51,154,51);"/>
                </g>
                <g transform="matrix(0.6,0,0,0.6,-9,-24)">
                    <circle cx="17.5" cy="42.5" r="2.5" style="fill:rgb(51,154,51);"/>
                </g>
                <g transform="matrix(0.6,0,0,0.6,231,-24)">
                    <circle cx="17.5" cy="42.5" r="2.5" style="fill:rgb(51,154,51);"/>
                </g>
            </g>
            <g transform="matrix(1,0,0,1,0,150)">
                <g transform="matrix(0.6,0,0,0.6,201,-24)">
                    <circle cx="17.5" cy="42.5" r="2.5" style="fill:rgb(51,154,51);"/>
                </g>
                <g transform="matrix(0.6,0,0,0.6,81,-24)">
                    <circle cx="17.5" cy="42.5" r="2.5" style="fill:rgb(51,154,51);"/>
                </g>
                <g transform="matrix(0.6,0,0,0.6,141,-24)">
                    <circle cx="17.5" cy="42.5" r="2.5" style="fill:rgb(51,154,51);"/>
                </g>
                <g transform="matrix(0.6,0,0,0.6,21,-24)">
                    <circle cx="17.5" cy="42.5" r="2.5" style="fill:rgb(51,154,51);"/>
                </g>
                <g transform="matrix(0.6,0,0,0.6,261,-24)">
                    <circle cx="17.5" cy="42.5" r="2.5" style="fill:rgb(51,154,51);"/>
                </g>
                <g transform="matrix(0.6,0,0,0.6,171,-24)">
                    <circle cx="17.5" cy="42.5" r="2.5" style="fill:rgb(51,154,51);"/>
                </g>
                <g transform="matrix(0.6,0,0,0.6,51,-24)">
                    <circle cx="17.5" cy="42.5" r="2.5" style="fill:rgb(51,154,51);"/>
                </g>
                <g transform="matrix(0.6,0,0,0.6,111,-24)">
                    <circle cx="17.5" cy="42.5" r="2.5" style="fill:rgb(51,154,51);"/>
                </g>
                <g transform="matrix(0.6,0,0,0.6,-9,-24)">
                    <circle cx="17.5" cy="42.5" r="2.5" style="fill:rgb(51,154,51);"/>
                </g>
                <g transform="matrix(0.6,0,0,0.6,231,-24)">
                    <circle cx="17.5" cy="42.5" r="2.5" style="fill:rgb(51,154,51);"/>
                </g>
            </g>
            <g transform="matrix(1,0,0,1,0,240)">
                <g transform="matrix(0.6,0,0,0.6,201,-24)">
                    <circle cx="17.5" cy="42.5" r="2.5" style="fill:rgb(51,154,51);"/>
                </g>
                <g transform="matrix(0.6,0,0,0.6,81,-24)">
                    <circle cx="17.5" cy="42.5" r="2.5" style="fill:rgb(51,154,51);"/>
                </g>
                <g transform="matrix(0.6,0,0,0.6,141,-24)">
                    <circle cx="17.5" cy="42.5" r="2.5" style="fill:rgb(51,154,51);"/>
                </g>
                <g transform="matrix(0.6,0,0,0.6,21,-24)">
                    <circle cx="17.5" cy="42.5" r="2.5" style="fill:rgb(51,154,51);"/>
                </g>
                <g transform="matrix(0.6,0,0,0.6,261,-24)">
                    <circle cx="17.5" cy="42.5" r="2.5" style="fill:rgb(51,154,51);"/>
                </g>
                <g transform="matrix(0.6,0,0,0.6,171,-24)">
                    <circle cx="17.5" cy="42.5" r="2.5" style="fill:rgb(51,154,51);"/>
                </g>
                <g transform="matrix(0.6,0,0,0.6,51,-24)">
                    <circle cx="17.5" cy="42.5" r="2.5" style="fill:rgb(51,154,51);"/>
                </g>
                <g transform="matrix(0.6,0,0,0.6,111,-24)">
                    <circle cx="17.5" cy="42.5" r="2.5" style="fill:rgb(51,154,51);"/>
                </g>
                <g transform="matrix(0.6,0,0,0.6,-9,-24)">
                    <circle cx="17.5" cy="42.5" r="2.5" style="fill:rgb(51,154,51);"/>
                </g>
                <g transform="matrix(0.6,0,0,0.6,231,-24)">
                    <circle cx="17.5" cy="42.5" r="2.5" style="fill:rgb(51,154,51);"/>
                </g>
            </g>
            <g transform="matrix(1,0,0,1,0,270)">
                <g transform="matrix(0.6,0,0,0.6,201,-24)">
                    <circle cx="17.5" cy="42.5" r="2.5" style="fill:rgb(51,154,51);"/>
                </g>
                <g transform="matrix(0.6,0,0,0.6,81,-24)">
                    <circle cx="17.5" cy="42.5" r="2.5" style="fill:rgb(51,154,51);"/>
                </g>
                <g transform="matrix(0.6,0,0,0.6,141,-24)">
                    <circle cx="17.5" cy="42.5" r="2.5" style="fill:rgb(51,154,51);"/>
                </g>
                <g transform="matrix(0.6,0,0,0.6,21,-24)">
                    <circle cx="17.5" cy="42.5" r="2.5" style="fill:rgb(51,154,51);"/>
                </g>
                <g transform="matrix(0.6,0,0,0.6,261,-24)">
                    <circle cx="17.5" cy="42.5" r="2.5" style="fill:rgb(51,154,51);"/>
                </g>
                <g transform="matrix(0.6,0,0,0.6,171,-24)">
                    <circle cx="17.5" cy="42.5" r="2.5" style="fill:rgb(51,154,51);"/>
                </g>
                <g transform="matrix(0.6,0,0,0.6,51,-24)">
                    <circle cx="17.5" cy="42.5" r="2.5" style="fill:rgb(51,154,51);"/>
                </g>
                <g transform="matrix(0.6,0,0,0.6,111,-24)">
                    <circle cx="17.5" cy="42.5" r="2.5" style="fill:rgb(51,154,51);"/>
                </g>
                <g transform="matrix(0.6,0,0,0.6,-9,-24)">
                    <circle cx="17.5" cy="42.5" r="2.5" style="fill:rgb(51,154,51);"/>
                </g>
                <g transform="matrix(0.6,0,0,0.6,231,-24)">
                    <circle cx="17.5" cy="42.5" r="2.5" style="fill:rgb(51,154,51);"/>
                </g>
            </g>
            <g transform="matrix(1,0,0,1,0,60)">
                <g transform="matrix(0.6,0,0,0.6,201,-24)">
                    <circle cx="17.5" cy="42.5" r="2.5" style="fill:rgb(51,154,51);"/>
                </g>
                <g transform="matrix(0.6,0,0,0.6,81,-24)">
                    <circle cx="17.5" cy="42.5" r="2.5" style="fill:rgb(51,154,51);"/>
                </g>
                <g transform="matrix(0.6,0,0,0.6,141,-24)">
                    <circle cx="17.5" cy="42.5" r="2.5" style="fill:rgb(51,154,51);"/>
                </g>
                <g transform="matrix(0.6,0,0,0.6,21,-24)">
                    <circle cx="17.5" cy="42.5" r="2.5" style="fill:rgb(51,154,51);"/>
                </g>
                <g transform="matrix(0.6,0,0,0.6,261,-24)">
                    <circle cx="17.5" cy="42.5" r="2.5" style="fill:rgb(51,154,51);"/>
                </g>
                <g transform="matrix(0.6,0,0,0.6,171,-24)">
                    <circle cx="17.5" cy="42.5" r="2.5" style="fill:rgb(51,154,51);"/>
                </g>
                <g transform="matrix(0.6,0,0,0.6,51,-24)">
                    <circle cx="17.5" cy="42.5" r="2.5" style="fill:rgb(51,154,51);"/>
                </g>
                <g transform="matrix(0.6,0,0,0.6,111,-24)">
                    <circle cx="17.5" cy="42.5" r="2.5" style="fill:rgb(51,154,51);"/>
                </g>
                <g transform="matrix(0.6,0,0,0.6,-9,-24)">
                    <circle cx="17.5" cy="42.5" r="2.5" style="fill:rgb(51,154,51);"/>
                </g>
                <g transform="matrix(0.6,0,0,0.6,231,-24)">
                    <circle cx="17.5" cy="42.5" r="2.5" style="fill:rgb(51,154,51);"/>
                </g>
            </g>
            <g transform="matrix(1,0,0,1,0,180)">
                <g transform="matrix(0.6,0,0,0.6,201,-24)">
                    <circle cx="17.5" cy="42.5" r="2.5" style="fill:rgb(51,154,51);"/>
                </g>
                <g transform="matrix(0.6,0,0,0.6,81,-24)">
                    <circle cx="17.5" cy="42.5" r="2.5" style="fill:rgb(51,154,51);"/>
                </g>
                <g transform="matrix(0.6,0,0,0.6,141,-24)">
                    <circle cx="17.5" cy="42.5" r="2.5" style="fill:rgb(51,154,51);"/>
                </g>
                <g transform="matrix(0.6,0,0,0.6,21,-24)">
                    <circle cx="17.5" cy="42.5" r="2.5" style="fill:rgb(51,154,51);"/>
                </g>
                <g transform="matrix(0.6,0,0,0.6,261,-24)">
                    <circle cx="17.5" cy="42.5" r="2.5" style="fill:rgb(51,154,51);"/>
                </g>
                <g transform="matrix(0.6,0,0,0.6,171,-24)">
                    <circle cx="17.5" cy="42.5" r="2.5" style="fill:rgb(51,154,51);"/>
                </g>
                <g transform="matrix(0.6,0,0,0.6,51,-24)">
                    <circle cx="17.5" cy="42.5" r="2.5" style="fill:rgb(51,154,51);"/>
                </g>
                <g transform="matrix(0.6,0,0,0.6,111,-24)">
                    <circle cx="17.5" cy="42.5" r="2.5" style="fill:rgb(51,154,51);"/>
                </g>
                <g transform="matrix(0.6,0,0,0.6,-9,-24)">
                    <circle cx="17.5" cy="42.5" r="2.5" style="fill:rgb(51,154,51);"/>
                </g>
                <g transform="matrix(0.6,0,0,0.6,231,-24)">
                    <circle cx="17.5" cy="42.5" r="2.5" style="fill:rgb(51,154,51);"/>
                </g>
            </g>
            <g>
                <g transform="matrix(0.6,0,0,0.6,201,-24)">
                    <circle cx="17.5" cy="42.5" r="2.5" style="fill:rgb(51,154,51);"/>
                </g>
                <g transform="matrix(0.6,0,0,0.6,81,-24)">
                    <circle cx="17.5" cy="42.5" r="2.5" style="fill:rgb(51,154,51);"/>
                </g>
                <g transform="matrix(0.6,0,0,0.6,141,-24)">
                    <circle cx="17.5" cy="42.5" r="2.5" style="fill:rgb(51,154,51);"/>
                </g>
                <g transform="matrix(0.6,0,0,0.6,21,-24)">
                    <circle cx="17.5" cy="42.5" r="2.5" style="fill:rgb(51,154,51);"/>
                </g>
                <g transform="matrix(0.6,0,0,0.6,261,-24)">
                    <circle cx="17.5" cy="42.5" r="2.5" style="fill:rgb(51,154,51);"/>
                </g>
                <g transform="matrix(0.6,0,0,0.6,171,-24)">
                    <circle cx="17.5" cy="42.5" r="2.5" style="fill:rgb(51,154,51);"/>
                </g>
                <g transform="matrix(0.6,0,0,0.6,51,-24)">
                    <circle cx="17.5" cy="42.5" r="2.5" style="fill:rgb(51,154,51);"/>
                </g>
                <g transform="matrix(0.6,0,0,0.6,111,-24)">
                    <circle cx="17.5" cy="42.5" r="2.5" style="fill:rgb(51,154,51);"/>
                </g>
                <g transform="matrix(0.6,0,0,0.6,-9,-24)">
                    <circle cx="17.5" cy="42.5" r="2.5" style="fill:rgb(51,154,51);"/>
                </g>
                <g transform="matrix(0.6,0,0,0.6,231,-24)">
                    <circle cx="17.5" cy="42.5" r="2.5" style="fill:rgb(51,154,51);"/>
                </g>
            </g>
            <g transform="matrix(1,0,0,1,0,120)">
                <g transform="matrix(0.6,0,0,0.6,201,-24)">
                    <circle cx="17.5" cy="42.5" r="2.5" style="fill:rgb(51,154,51);"/>
                </g>
                <g transform="matrix(0.6,0,0,0.6,81,-24)">
                    <circle cx="17.5" cy="42.5" r="2.5" style="fill:rgb(51,154,51);"/>
                </g>
                <g transform="matrix(0.6,0,0,0.6,141,-24)">
                    <circle cx="17.5" cy="42.5" r="2.5" style="fill:rgb(51,154,51);"/>
                </g>
                <g transform="matrix(0.6,0,0,0.6,21,-24)">
                    <circle cx="17.5" cy="42.5" r="2.5" style="fill:rgb(51,154,51);"/>
                </g>
                <g transform="matrix(0.6,0,0,0.6,261,-24)">
                    <circle cx="17.5" cy="42.5" r="2.5" style="fill:rgb(51,154,51);"/>
                </g>
                <g transform="matrix(0.6,0,0,0.6,171,-24)">
                    <circle cx="17.5" cy="42.5" r="2.5" style="fill:rgb(51,154,51);"/>
                </g>
                <g transform="matrix(0.6,0,0,0.6,51,-24)">
                    <circle cx="17.5" cy="42.5" r="2.5" style="fill:rgb(51,154,51);"/>
                </g>
                <g transform="matrix(0.6,0,0,0.6,111,-24)">
                    <circle cx="17.5" cy="42.5" r="2.5" style="fill:rgb(51,154,51);"/>
                </g>
                <g transform="matrix(0.6,0,0,0.6,-9,-24)">
                    <circle cx="17.5" cy="42.5" r="2.5" style="fill:rgb(51,154,51);"/>
                </g>
                <g transform="matrix(0.6,0,0,0.6,231,-24)">
                    <circle cx="17.5" cy="42.5" r="2.5" style="fill:rgb(51,154,51);"/>
                </g>
            </g>
        </g>
    </g>
</svg>
