<svg width="368" height="169" viewBox="0 0 368 169" fill="none" xmlns="http://www.w3.org/2000/svg">
<mask id="path-1-outside-1_370_441" maskUnits="userSpaceOnUse" x="63" y="7" width="57" height="73" fill="black">
<rect fill="white" x="63" y="7" width="57" height="73"/>
<path d="M91.1104 9C105.222 9.00018 116.716 23.6397 117.201 41.9385H107.553C107.069 30.7414 99.8931 21.8547 91.1104 21.8545C82.0146 21.8545 74.6408 31.3857 74.6406 43.1436C74.6406 54.7277 81.7981 64.1506 90.708 64.4268V64.4336C94.2574 64.4336 97.1355 67.311 97.1357 70.8604C97.1357 74.4099 94.2576 77.2881 90.708 77.2881C90.5061 77.2881 90.3065 77.277 90.1094 77.2588C76.1531 76.5708 65 61.5624 65 43.1436C65.0002 24.2866 76.6903 9 91.1104 9Z"/>
</mask>
<path d="M91.1104 9C105.222 9.00018 116.716 23.6397 117.201 41.9385H107.553C107.069 30.7414 99.8931 21.8547 91.1104 21.8545C82.0146 21.8545 74.6408 31.3857 74.6406 43.1436C74.6406 54.7277 81.7981 64.1506 90.708 64.4268V64.4336C94.2574 64.4336 97.1355 67.311 97.1357 70.8604C97.1357 74.4099 94.2576 77.2881 90.708 77.2881C90.5061 77.2881 90.3065 77.277 90.1094 77.2588C76.1531 76.5708 65 61.5624 65 43.1436C65.0002 24.2866 76.6903 9 91.1104 9Z" fill="black"/>
<path d="M91.1104 9L91.1104 7H91.1104V9ZM117.201 41.9385V43.9385H119.255L119.2 41.8854L117.201 41.9385ZM107.553 41.9385L105.555 42.0248L105.637 43.9385H107.553V41.9385ZM91.1104 21.8545L91.1104 19.8545H91.1104V21.8545ZM74.6406 43.1436L72.6406 43.1435V43.1436H74.6406ZM90.708 64.4268H92.708V62.4878L90.77 62.4277L90.708 64.4268ZM90.708 64.4336H88.708V66.4336H90.708V64.4336ZM97.1357 70.8604H99.1357V70.8602L97.1357 70.8604ZM90.708 77.2881L90.7079 79.2881H90.708V77.2881ZM90.1094 77.2588L90.2935 75.2673L90.2507 75.2633L90.2078 75.2612L90.1094 77.2588ZM65 43.1436L63 43.1435V43.1436H65ZM91.1104 9L91.1103 11C103.687 11.0002 114.731 24.2614 115.202 41.9915L117.201 41.9385L119.2 41.8854C118.7 23.018 106.756 7.0002 91.1104 7L91.1104 9ZM117.201 41.9385V39.9385H107.553V41.9385V43.9385H117.201V41.9385ZM107.553 41.9385L109.551 41.8522C109.042 30.0668 101.388 19.8547 91.1104 19.8545L91.1104 21.8545L91.1103 23.8545C98.3982 23.8546 105.097 31.4161 105.555 42.0248L107.553 41.9385ZM91.1104 21.8545V19.8545C80.463 19.8545 72.6408 30.789 72.6406 43.1435L74.6406 43.1436L76.6406 43.1436C76.6408 31.9825 83.5663 23.8545 91.1104 23.8545V21.8545ZM74.6406 43.1436H72.6406C72.6406 55.3262 80.2318 66.103 90.646 66.4258L90.708 64.4268L90.77 62.4277C83.3644 62.1982 76.6406 54.1292 76.6406 43.1436H74.6406ZM90.708 64.4268H88.708V64.4336H90.708H92.708V64.4268H90.708ZM90.708 64.4336V66.4336C93.1531 66.4336 95.1356 68.4158 95.1357 70.8605L97.1357 70.8604L99.1357 70.8602C99.1354 66.2061 95.3618 62.4336 90.708 62.4336V64.4336ZM97.1357 70.8604H95.1357C95.1357 73.3054 93.153 75.2881 90.708 75.2881V77.2881V79.2881C95.3622 79.2881 99.1357 75.5145 99.1357 70.8604H97.1357ZM90.708 77.2881L90.7081 75.2881C90.5788 75.2881 90.4417 75.281 90.2935 75.2673L90.1094 77.2588L89.9253 79.2503C90.1713 79.273 90.4334 79.2881 90.7079 79.2881L90.708 77.2881ZM90.1094 77.2588L90.2078 75.2612C77.7445 74.6468 67 60.9848 67 43.1436H65H63C63 62.14 74.5617 78.4948 90.0109 79.2564L90.1094 77.2588ZM65 43.1436L67 43.1436C67.0001 34.1152 69.8009 26.0155 74.2364 20.2153C78.6705 14.417 84.6543 11 91.1104 11V9V7C83.1463 7 76.075 11.2262 71.059 17.7855C66.0444 24.3429 63.0001 33.3149 63 43.1435L65 43.1436Z" fill="black" mask="url(#path-1-outside-1_370_441)"/>
<mask id="path-3-outside-2_370_441" maskUnits="userSpaceOnUse" x="113" y="7" width="57" height="73" fill="black">
<rect fill="white" x="113" y="7" width="57" height="73"/>
<path d="M141.11 9C155.222 9.00018 166.716 23.6397 167.201 41.9385H157.553C157.069 30.7414 149.893 21.8547 141.11 21.8545C132.015 21.8545 124.641 31.3857 124.641 43.1436C124.641 54.7277 131.798 64.1506 140.708 64.4268V64.4336C144.257 64.4336 147.135 67.311 147.136 70.8604C147.136 74.4099 144.258 77.2881 140.708 77.2881C140.506 77.2881 140.307 77.277 140.109 77.2588C126.153 76.5708 115 61.5624 115 43.1436C115 24.2866 126.69 9 141.11 9Z"/>
</mask>
<path d="M141.11 9C155.222 9.00018 166.716 23.6397 167.201 41.9385H157.553C157.069 30.7414 149.893 21.8547 141.11 21.8545C132.015 21.8545 124.641 31.3857 124.641 43.1436C124.641 54.7277 131.798 64.1506 140.708 64.4268V64.4336C144.257 64.4336 147.135 67.311 147.136 70.8604C147.136 74.4099 144.258 77.2881 140.708 77.2881C140.506 77.2881 140.307 77.277 140.109 77.2588C126.153 76.5708 115 61.5624 115 43.1436C115 24.2866 126.69 9 141.11 9Z" fill="black"/>
<path d="M141.11 9L141.11 7H141.11V9ZM167.201 41.9385V43.9385H169.255L169.2 41.8854L167.201 41.9385ZM157.553 41.9385L155.555 42.0248L155.637 43.9385H157.553V41.9385ZM141.11 21.8545L141.11 19.8545H141.11V21.8545ZM124.641 43.1436L122.641 43.1435V43.1436H124.641ZM140.708 64.4268H142.708V62.4878L140.77 62.4277L140.708 64.4268ZM140.708 64.4336H138.708V66.4336H140.708V64.4336ZM147.136 70.8604H149.136V70.8602L147.136 70.8604ZM140.708 77.2881L140.708 79.2881H140.708V77.2881ZM140.109 77.2588L140.293 75.2673L140.251 75.2633L140.208 75.2612L140.109 77.2588ZM115 43.1436L113 43.1435V43.1436H115ZM141.11 9L141.11 11C153.687 11.0002 164.731 24.2614 165.202 41.9915L167.201 41.9385L169.2 41.8854C168.7 23.018 156.756 7.0002 141.11 7L141.11 9ZM167.201 41.9385V39.9385H157.553V41.9385V43.9385H167.201V41.9385ZM157.553 41.9385L159.551 41.8522C159.042 30.0668 151.388 19.8547 141.11 19.8545L141.11 21.8545L141.11 23.8545C148.398 23.8546 155.097 31.4161 155.555 42.0248L157.553 41.9385ZM141.11 21.8545V19.8545C130.463 19.8545 122.641 30.789 122.641 43.1435L124.641 43.1436L126.641 43.1436C126.641 31.9825 133.566 23.8545 141.11 23.8545V21.8545ZM124.641 43.1436H122.641C122.641 55.3262 130.232 66.103 140.646 66.4258L140.708 64.4268L140.77 62.4277C133.364 62.1982 126.641 54.1292 126.641 43.1436H124.641ZM140.708 64.4268H138.708V64.4336H140.708H142.708V64.4268H140.708ZM140.708 64.4336V66.4336C143.153 66.4336 145.136 68.4158 145.136 70.8605L147.136 70.8604L149.136 70.8602C149.135 66.2061 145.362 62.4336 140.708 62.4336V64.4336ZM147.136 70.8604H145.136C145.136 73.3054 143.153 75.2881 140.708 75.2881V77.2881V79.2881C145.362 79.2881 149.136 75.5145 149.136 70.8604H147.136ZM140.708 77.2881L140.708 75.2881C140.579 75.2881 140.442 75.281 140.293 75.2673L140.109 77.2588L139.925 79.2503C140.171 79.273 140.433 79.2881 140.708 79.2881L140.708 77.2881ZM140.109 77.2588L140.208 75.2612C127.744 74.6468 117 60.9848 117 43.1436H115H113C113 62.14 124.562 78.4948 140.011 79.2564L140.109 77.2588ZM115 43.1436L117 43.1436C117 34.1152 119.801 26.0155 124.236 20.2153C128.67 14.417 134.654 11 141.11 11V9V7C133.146 7 126.075 11.2262 121.059 17.7855C116.044 24.3429 113 33.3149 113 43.1435L115 43.1436Z" fill="black" mask="url(#path-3-outside-2_370_441)"/>
<mask id="path-5-outside-3_370_441" maskUnits="userSpaceOnUse" x="163" y="7" width="57" height="73" fill="black">
<rect fill="white" x="163" y="7" width="57" height="73"/>
<path d="M191.11 9C205.222 9.00018 216.716 23.6397 217.201 41.9385H207.553C207.069 30.7414 199.893 21.8547 191.11 21.8545C182.015 21.8545 174.641 31.3857 174.641 43.1436C174.641 54.7277 181.798 64.1506 190.708 64.4268V64.4336C194.257 64.4336 197.135 67.311 197.136 70.8604C197.136 74.4099 194.258 77.2881 190.708 77.2881C190.506 77.2881 190.307 77.277 190.109 77.2588C176.153 76.5708 165 61.5624 165 43.1436C165 24.2866 176.69 9 191.11 9Z"/>
</mask>
<path d="M191.11 9C205.222 9.00018 216.716 23.6397 217.201 41.9385H207.553C207.069 30.7414 199.893 21.8547 191.11 21.8545C182.015 21.8545 174.641 31.3857 174.641 43.1436C174.641 54.7277 181.798 64.1506 190.708 64.4268V64.4336C194.257 64.4336 197.135 67.311 197.136 70.8604C197.136 74.4099 194.258 77.2881 190.708 77.2881C190.506 77.2881 190.307 77.277 190.109 77.2588C176.153 76.5708 165 61.5624 165 43.1436C165 24.2866 176.69 9 191.11 9Z" fill="black"/>
<path d="M191.11 9L191.11 7H191.11V9ZM217.201 41.9385V43.9385H219.255L219.2 41.8854L217.201 41.9385ZM207.553 41.9385L205.555 42.0248L205.637 43.9385H207.553V41.9385ZM191.11 21.8545L191.11 19.8545H191.11V21.8545ZM174.641 43.1436L172.641 43.1435V43.1436H174.641ZM190.708 64.4268H192.708V62.4878L190.77 62.4277L190.708 64.4268ZM190.708 64.4336H188.708V66.4336H190.708V64.4336ZM197.136 70.8604H199.136V70.8602L197.136 70.8604ZM190.708 77.2881L190.708 79.2881H190.708V77.2881ZM190.109 77.2588L190.293 75.2673L190.251 75.2633L190.208 75.2612L190.109 77.2588ZM165 43.1436L163 43.1435V43.1436H165ZM191.11 9L191.11 11C203.687 11.0002 214.731 24.2614 215.202 41.9915L217.201 41.9385L219.2 41.8854C218.7 23.018 206.756 7.0002 191.11 7L191.11 9ZM217.201 41.9385V39.9385H207.553V41.9385V43.9385H217.201V41.9385ZM207.553 41.9385L209.551 41.8522C209.042 30.0668 201.388 19.8547 191.11 19.8545L191.11 21.8545L191.11 23.8545C198.398 23.8546 205.097 31.4161 205.555 42.0248L207.553 41.9385ZM191.11 21.8545V19.8545C180.463 19.8545 172.641 30.789 172.641 43.1435L174.641 43.1436L176.641 43.1436C176.641 31.9825 183.566 23.8545 191.11 23.8545V21.8545ZM174.641 43.1436H172.641C172.641 55.3262 180.232 66.103 190.646 66.4258L190.708 64.4268L190.77 62.4277C183.364 62.1982 176.641 54.1292 176.641 43.1436H174.641ZM190.708 64.4268H188.708V64.4336H190.708H192.708V64.4268H190.708ZM190.708 64.4336V66.4336C193.153 66.4336 195.136 68.4158 195.136 70.8605L197.136 70.8604L199.136 70.8602C199.135 66.2061 195.362 62.4336 190.708 62.4336V64.4336ZM197.136 70.8604H195.136C195.136 73.3054 193.153 75.2881 190.708 75.2881V77.2881V79.2881C195.362 79.2881 199.136 75.5145 199.136 70.8604H197.136ZM190.708 77.2881L190.708 75.2881C190.579 75.2881 190.442 75.281 190.293 75.2673L190.109 77.2588L189.925 79.2503C190.171 79.273 190.433 79.2881 190.708 79.2881L190.708 77.2881ZM190.109 77.2588L190.208 75.2612C177.744 74.6468 167 60.9848 167 43.1436H165H163C163 62.14 174.562 78.4948 190.011 79.2564L190.109 77.2588ZM165 43.1436L167 43.1436C167 34.1152 169.801 26.0155 174.236 20.2153C178.67 14.417 184.654 11 191.11 11V9V7C183.146 7 176.075 11.2262 171.059 17.7855C166.044 24.3429 163 33.3149 163 43.1435L165 43.1436Z" fill="black" mask="url(#path-5-outside-3_370_441)"/>
<mask id="path-7-outside-4_370_441" maskUnits="userSpaceOnUse" x="213" y="7" width="57" height="73" fill="black">
<rect fill="white" x="213" y="7" width="57" height="73"/>
<path d="M241.11 9C255.222 9.00018 266.716 23.6397 267.201 41.9385H257.553C257.069 30.7414 249.893 21.8547 241.11 21.8545C232.015 21.8545 224.641 31.3857 224.641 43.1436C224.641 54.7277 231.798 64.1506 240.708 64.4268V64.4336C244.257 64.4336 247.135 67.311 247.136 70.8604C247.136 74.4099 244.258 77.2881 240.708 77.2881C240.506 77.2881 240.307 77.277 240.109 77.2588C226.153 76.5708 215 61.5624 215 43.1436C215 24.2866 226.69 9 241.11 9Z"/>
</mask>
<path d="M241.11 9C255.222 9.00018 266.716 23.6397 267.201 41.9385H257.553C257.069 30.7414 249.893 21.8547 241.11 21.8545C232.015 21.8545 224.641 31.3857 224.641 43.1436C224.641 54.7277 231.798 64.1506 240.708 64.4268V64.4336C244.257 64.4336 247.135 67.311 247.136 70.8604C247.136 74.4099 244.258 77.2881 240.708 77.2881C240.506 77.2881 240.307 77.277 240.109 77.2588C226.153 76.5708 215 61.5624 215 43.1436C215 24.2866 226.69 9 241.11 9Z" fill="black"/>
<path d="M241.11 9L241.11 7H241.11V9ZM267.201 41.9385V43.9385H269.255L269.2 41.8854L267.201 41.9385ZM257.553 41.9385L255.555 42.0248L255.637 43.9385H257.553V41.9385ZM241.11 21.8545L241.11 19.8545H241.11V21.8545ZM224.641 43.1436L222.641 43.1435V43.1436H224.641ZM240.708 64.4268H242.708V62.4878L240.77 62.4277L240.708 64.4268ZM240.708 64.4336H238.708V66.4336H240.708V64.4336ZM247.136 70.8604H249.136V70.8602L247.136 70.8604ZM240.708 77.2881L240.708 79.2881H240.708V77.2881ZM240.109 77.2588L240.293 75.2673L240.251 75.2633L240.208 75.2612L240.109 77.2588ZM215 43.1436L213 43.1435V43.1436H215ZM241.11 9L241.11 11C253.687 11.0002 264.731 24.2614 265.202 41.9915L267.201 41.9385L269.2 41.8854C268.7 23.018 256.756 7.0002 241.11 7L241.11 9ZM267.201 41.9385V39.9385H257.553V41.9385V43.9385H267.201V41.9385ZM257.553 41.9385L259.551 41.8522C259.042 30.0668 251.388 19.8547 241.11 19.8545L241.11 21.8545L241.11 23.8545C248.398 23.8546 255.097 31.4161 255.555 42.0248L257.553 41.9385ZM241.11 21.8545V19.8545C230.463 19.8545 222.641 30.789 222.641 43.1435L224.641 43.1436L226.641 43.1436C226.641 31.9825 233.566 23.8545 241.11 23.8545V21.8545ZM224.641 43.1436H222.641C222.641 55.3262 230.232 66.103 240.646 66.4258L240.708 64.4268L240.77 62.4277C233.364 62.1982 226.641 54.1292 226.641 43.1436H224.641ZM240.708 64.4268H238.708V64.4336H240.708H242.708V64.4268H240.708ZM240.708 64.4336V66.4336C243.153 66.4336 245.136 68.4158 245.136 70.8605L247.136 70.8604L249.136 70.8602C249.135 66.2061 245.362 62.4336 240.708 62.4336V64.4336ZM247.136 70.8604H245.136C245.136 73.3054 243.153 75.2881 240.708 75.2881V77.2881V79.2881C245.362 79.2881 249.136 75.5145 249.136 70.8604H247.136ZM240.708 77.2881L240.708 75.2881C240.579 75.2881 240.442 75.281 240.293 75.2673L240.109 77.2588L239.925 79.2503C240.171 79.273 240.433 79.2881 240.708 79.2881L240.708 77.2881ZM240.109 77.2588L240.208 75.2612C227.744 74.6468 217 60.9848 217 43.1436H215H213C213 62.14 224.562 78.4948 240.011 79.2564L240.109 77.2588ZM215 43.1436L217 43.1436C217 34.1152 219.801 26.0155 224.236 20.2153C228.67 14.417 234.654 11 241.11 11V9V7C233.146 7 226.075 11.2262 221.059 17.7855C216.044 24.3429 213 33.3149 213 43.1435L215 43.1436Z" fill="black" mask="url(#path-7-outside-4_370_441)"/>
<mask id="path-9-outside-5_370_441" maskUnits="userSpaceOnUse" x="263" y="7" width="57" height="73" fill="black">
<rect fill="white" x="263" y="7" width="57" height="73"/>
<path d="M291.11 9C305.222 9.00018 316.716 23.6397 317.201 41.9385H307.553C307.069 30.7414 299.893 21.8547 291.11 21.8545C282.015 21.8545 274.641 31.3857 274.641 43.1436C274.641 54.7277 281.798 64.1506 290.708 64.4268V64.4336C294.257 64.4336 297.135 67.311 297.136 70.8604C297.136 74.4099 294.258 77.2881 290.708 77.2881C290.506 77.2881 290.307 77.277 290.109 77.2588C276.153 76.5708 265 61.5624 265 43.1436C265 24.2866 276.69 9 291.11 9Z"/>
</mask>
<path d="M291.11 9C305.222 9.00018 316.716 23.6397 317.201 41.9385H307.553C307.069 30.7414 299.893 21.8547 291.11 21.8545C282.015 21.8545 274.641 31.3857 274.641 43.1436C274.641 54.7277 281.798 64.1506 290.708 64.4268V64.4336C294.257 64.4336 297.135 67.311 297.136 70.8604C297.136 74.4099 294.258 77.2881 290.708 77.2881C290.506 77.2881 290.307 77.277 290.109 77.2588C276.153 76.5708 265 61.5624 265 43.1436C265 24.2866 276.69 9 291.11 9Z" fill="black"/>
<path d="M291.11 9L291.11 7H291.11V9ZM317.201 41.9385V43.9385H319.255L319.2 41.8854L317.201 41.9385ZM307.553 41.9385L305.555 42.0248L305.637 43.9385H307.553V41.9385ZM291.11 21.8545L291.11 19.8545H291.11V21.8545ZM274.641 43.1436L272.641 43.1435V43.1436H274.641ZM290.708 64.4268H292.708V62.4878L290.77 62.4277L290.708 64.4268ZM290.708 64.4336H288.708V66.4336H290.708V64.4336ZM297.136 70.8604H299.136V70.8602L297.136 70.8604ZM290.708 77.2881L290.708 79.2881H290.708V77.2881ZM290.109 77.2588L290.293 75.2673L290.251 75.2633L290.208 75.2612L290.109 77.2588ZM265 43.1436L263 43.1435V43.1436H265ZM291.11 9L291.11 11C303.687 11.0002 314.731 24.2614 315.202 41.9915L317.201 41.9385L319.2 41.8854C318.7 23.018 306.756 7.0002 291.11 7L291.11 9ZM317.201 41.9385V39.9385H307.553V41.9385V43.9385H317.201V41.9385ZM307.553 41.9385L309.551 41.8522C309.042 30.0668 301.388 19.8547 291.11 19.8545L291.11 21.8545L291.11 23.8545C298.398 23.8546 305.097 31.4161 305.555 42.0248L307.553 41.9385ZM291.11 21.8545V19.8545C280.463 19.8545 272.641 30.789 272.641 43.1435L274.641 43.1436L276.641 43.1436C276.641 31.9825 283.566 23.8545 291.11 23.8545V21.8545ZM274.641 43.1436H272.641C272.641 55.3262 280.232 66.103 290.646 66.4258L290.708 64.4268L290.77 62.4277C283.364 62.1982 276.641 54.1292 276.641 43.1436H274.641ZM290.708 64.4268H288.708V64.4336H290.708H292.708V64.4268H290.708ZM290.708 64.4336V66.4336C293.153 66.4336 295.136 68.4158 295.136 70.8605L297.136 70.8604L299.136 70.8602C299.135 66.2061 295.362 62.4336 290.708 62.4336V64.4336ZM297.136 70.8604H295.136C295.136 73.3054 293.153 75.2881 290.708 75.2881V77.2881V79.2881C295.362 79.2881 299.136 75.5145 299.136 70.8604H297.136ZM290.708 77.2881L290.708 75.2881C290.579 75.2881 290.442 75.281 290.293 75.2673L290.109 77.2588L289.925 79.2503C290.171 79.273 290.433 79.2881 290.708 79.2881L290.708 77.2881ZM290.109 77.2588L290.208 75.2612C277.744 74.6468 267 60.9848 267 43.1436H265H263C263 62.14 274.562 78.4948 290.011 79.2564L290.109 77.2588ZM265 43.1436L267 43.1436C267 34.1152 269.801 26.0155 274.236 20.2153C278.67 14.417 284.654 11 291.11 11V9V7C283.146 7 276.075 11.2262 271.059 17.7855C266.044 24.3429 263 33.3149 263 43.1435L265 43.1436Z" fill="black" mask="url(#path-9-outside-5_370_441)"/>
<path d="M336 36L336.8 36.0098C353.551 36.434 367 50.1466 367 67V168H1V67C1 49.8792 14.8792 36 32 36H336Z" fill="#AA310B" stroke="black" stroke-width="2"/>
<circle cx="84" cy="64" r="12" fill="#381105" stroke="black" stroke-width="2"/>
<circle cx="134" cy="64" r="12" fill="#381105" stroke="black" stroke-width="2"/>
<circle cx="184" cy="64" r="12" fill="#381105" stroke="black" stroke-width="2"/>
<circle cx="234" cy="64" r="12" fill="#381105" stroke="black" stroke-width="2"/>
<circle cx="284" cy="64" r="12" fill="#381105" stroke="black" stroke-width="2"/>
<mask id="path-17-outside-6_370_441" maskUnits="userSpaceOnUse" x="56" y="0" width="57" height="73" fill="black">
<rect fill="white" x="56" width="57" height="73"/>
<path d="M84.1104 2C98.2219 2.00018 109.716 16.6397 110.201 34.9385H100.553C100.069 23.7414 92.8931 14.8547 84.1104 14.8545C75.0146 14.8545 67.6408 24.3857 67.6406 36.1436C67.6406 47.7277 74.7981 57.1506 83.708 57.4268V57.4336C87.2574 57.4336 90.1355 60.311 90.1357 63.8604C90.1357 67.4099 87.2576 70.2881 83.708 70.2881C83.5061 70.2881 83.3065 70.277 83.1094 70.2588C69.1531 69.5708 58 54.5624 58 36.1436C58.0002 17.2866 69.6903 2 84.1104 2Z"/>
</mask>
<path d="M84.1104 2C98.2219 2.00018 109.716 16.6397 110.201 34.9385H100.553C100.069 23.7414 92.8931 14.8547 84.1104 14.8545C75.0146 14.8545 67.6408 24.3857 67.6406 36.1436C67.6406 47.7277 74.7981 57.1506 83.708 57.4268V57.4336C87.2574 57.4336 90.1355 60.311 90.1357 63.8604C90.1357 67.4099 87.2576 70.2881 83.708 70.2881C83.5061 70.2881 83.3065 70.277 83.1094 70.2588C69.1531 69.5708 58 54.5624 58 36.1436C58.0002 17.2866 69.6903 2 84.1104 2Z" fill="#D4D4D4"/>
<path d="M84.1104 2L84.1104 0H84.1104V2ZM110.201 34.9385V36.9385H112.255L112.2 34.8854L110.201 34.9385ZM100.553 34.9385L98.5546 35.0248L98.6372 36.9385H100.553V34.9385ZM84.1104 14.8545L84.1104 12.8545H84.1104V14.8545ZM67.6406 36.1436L65.6406 36.1435V36.1436H67.6406ZM83.708 57.4268H85.708V55.4878L83.77 55.4277L83.708 57.4268ZM83.708 57.4336H81.708V59.4336H83.708V57.4336ZM90.1357 63.8604H92.1357V63.8602L90.1357 63.8604ZM83.708 70.2881L83.7079 72.2881H83.708V70.2881ZM83.1094 70.2588L83.2935 68.2673L83.2507 68.2633L83.2078 68.2612L83.1094 70.2588ZM58 36.1436L56 36.1435V36.1436H58ZM84.1104 2L84.1103 4C96.6875 4.00016 107.731 17.2614 108.202 34.9915L110.201 34.9385L112.2 34.8854C111.7 16.018 99.7563 0.000200391 84.1104 0L84.1104 2ZM110.201 34.9385V32.9385H100.553V34.9385V36.9385H110.201V34.9385ZM100.553 34.9385L102.551 34.8522C102.042 23.0668 94.388 12.8547 84.1104 12.8545L84.1104 14.8545L84.1103 16.8545C91.3982 16.8546 98.0965 24.4161 98.5546 35.0248L100.553 34.9385ZM84.1104 14.8545V12.8545C73.463 12.8545 65.6408 23.789 65.6406 36.1435L67.6406 36.1436L69.6406 36.1436C69.6408 24.9825 76.5663 16.8545 84.1104 16.8545V14.8545ZM67.6406 36.1436H65.6406C65.6406 48.3262 73.2318 59.103 83.646 59.4258L83.708 57.4268L83.77 55.4277C76.3644 55.1982 69.6406 47.1292 69.6406 36.1436H67.6406ZM83.708 57.4268H81.708V57.4336H83.708H85.708V57.4268H83.708ZM83.708 57.4336V59.4336C86.1531 59.4336 88.1356 61.4158 88.1357 63.8605L90.1357 63.8604L92.1357 63.8602C92.1354 59.2061 88.3618 55.4336 83.708 55.4336V57.4336ZM90.1357 63.8604H88.1357C88.1357 66.3054 86.153 68.2881 83.708 68.2881V70.2881V72.2881C88.3622 72.2881 92.1357 68.5145 92.1357 63.8604H90.1357ZM83.708 70.2881L83.7081 68.2881C83.5788 68.2881 83.4417 68.281 83.2935 68.2673L83.1094 70.2588L82.9253 72.2503C83.1713 72.273 83.4334 72.2881 83.7079 72.2881L83.708 70.2881ZM83.1094 70.2588L83.2078 68.2612C70.7445 67.6468 60 53.9848 60 36.1436H58H56C56 55.14 67.5617 71.4948 83.0109 72.2564L83.1094 70.2588ZM58 36.1436L60 36.1436C60.0001 27.1152 62.8009 19.0155 67.2364 13.2153C71.6705 7.41703 77.6543 4 84.1104 4V2V0C76.1463 0 69.075 4.22625 64.059 10.7855C59.0444 17.3429 56.0001 26.3149 56 36.1435L58 36.1436Z" fill="black" mask="url(#path-17-outside-6_370_441)"/>
<mask id="path-19-outside-7_370_441" maskUnits="userSpaceOnUse" x="106.201" y="0" width="57" height="73" fill="black">
<rect fill="white" x="106.201" width="57" height="73"/>
<path d="M134.312 2C148.423 2.0004 159.917 16.6398 160.402 34.9385H150.755C150.271 23.7415 143.094 14.8548 134.312 14.8545C125.216 14.8545 117.842 24.3857 117.842 36.1436C117.842 47.7281 125 57.1512 133.91 57.4268V57.4336C137.459 57.4341 140.336 60.3113 140.336 63.8604C140.336 67.4099 137.459 70.2881 133.909 70.2881C133.707 70.2881 133.508 70.277 133.311 70.2588C119.354 69.571 108.201 54.5625 108.201 36.1436C108.201 17.2866 119.891 2 134.312 2Z"/>
</mask>
<path d="M134.312 2C148.423 2.0004 159.917 16.6398 160.402 34.9385H150.755C150.271 23.7415 143.094 14.8548 134.312 14.8545C125.216 14.8545 117.842 24.3857 117.842 36.1436C117.842 47.7281 125 57.1512 133.91 57.4268V57.4336C137.459 57.4341 140.336 60.3113 140.336 63.8604C140.336 67.4099 137.459 70.2881 133.909 70.2881C133.707 70.2881 133.508 70.277 133.311 70.2588C119.354 69.571 108.201 54.5625 108.201 36.1436C108.201 17.2866 119.891 2 134.312 2Z" fill="#D4D4D4"/>
<path d="M134.312 2L134.312 0H134.312V2ZM160.402 34.9385V36.9385H162.456L162.402 34.8854L160.402 34.9385ZM150.755 34.9385L148.757 35.0248L148.839 36.9385H150.755V34.9385ZM134.312 14.8545L134.312 12.8545H134.312V14.8545ZM117.842 36.1436L115.842 36.1435V36.1436H117.842ZM133.91 57.4268H135.91V55.4876L133.972 55.4277L133.91 57.4268ZM133.91 57.4336H131.91V59.4333L133.91 59.4336L133.91 57.4336ZM140.336 63.8604H142.336V63.8602L140.336 63.8604ZM133.909 70.2881L133.909 72.2881H133.909V70.2881ZM133.311 70.2588L133.495 68.2673L133.452 68.2633L133.409 68.2612L133.311 70.2588ZM108.201 36.1436L106.201 36.1435V36.1436H108.201ZM134.312 2L134.311 4C146.888 4.00036 157.933 17.2616 158.403 34.9915L160.402 34.9385L162.402 34.8854C161.901 16.0181 149.957 0.0004462 134.312 0L134.312 2ZM160.402 34.9385V32.9385H150.755V34.9385V36.9385H160.402V34.9385ZM150.755 34.9385L152.753 34.8522C152.244 23.0667 144.589 12.8548 134.312 12.8545L134.312 14.8545L134.311 16.8545C141.599 16.8547 148.299 24.4163 148.757 35.0248L150.755 34.9385ZM134.312 14.8545V12.8545C123.664 12.8545 115.842 23.789 115.842 36.1435L117.842 36.1436L119.842 36.1436C119.842 24.9825 126.767 16.8545 134.312 16.8545V14.8545ZM117.842 36.1436H115.842C115.842 48.3266 123.433 59.1038 133.848 59.4258L133.91 57.4268L133.972 55.4277C126.566 55.1987 119.842 47.1296 119.842 36.1436H117.842ZM133.91 57.4268H131.91V57.4336H133.91H135.91V57.4268H133.91ZM133.91 57.4336L133.91 59.4336C136.354 59.4339 138.336 61.4156 138.336 63.8605L140.336 63.8604L142.336 63.8602C142.336 59.2069 138.564 55.4342 133.91 55.4336L133.91 57.4336ZM140.336 63.8604H138.336C138.336 66.3058 136.354 68.2881 133.909 68.2881V70.2881V72.2881C138.564 72.2881 142.336 68.5141 142.336 63.8604H140.336ZM133.909 70.2881L133.909 68.2881C133.78 68.2881 133.643 68.281 133.495 68.2673L133.311 70.2588L133.127 72.2503C133.372 72.273 133.634 72.2881 133.909 72.2881L133.909 70.2881ZM133.311 70.2588L133.409 68.2612C120.946 67.647 110.201 53.9849 110.201 36.1436H108.201H106.201C106.201 55.1401 117.763 71.495 133.212 72.2564L133.311 70.2588ZM108.201 36.1436L110.201 36.1436C110.201 27.1152 113.002 19.0155 117.438 13.2153C121.872 7.41703 127.855 4 134.312 4V2V0C126.347 0 119.276 4.22625 114.26 10.7855C109.246 17.3429 106.201 26.3149 106.201 36.1435L108.201 36.1436Z" fill="black" mask="url(#path-19-outside-7_370_441)"/>
<mask id="path-21-outside-8_370_441" maskUnits="userSpaceOnUse" x="156.402" y="0" width="57" height="73" fill="black">
<rect fill="white" x="156.402" width="57" height="73"/>
<path d="M184.513 2C198.624 2.00018 210.118 16.6397 210.604 34.9385H200.955C200.472 23.7415 193.295 14.8548 184.513 14.8545C175.417 14.8547 168.043 24.3859 168.043 36.1436C168.043 47.7276 175.201 57.1504 184.11 57.4268V57.4336H184.111C187.661 57.4337 190.538 60.3111 190.538 63.8604C190.538 67.4099 187.661 70.2879 184.111 70.2881C183.91 70.2881 183.71 70.2769 183.514 70.2588C169.557 69.5719 158.402 54.5631 158.402 36.1436C158.403 17.2867 170.093 2.00024 184.513 2Z"/>
</mask>
<path d="M184.513 2C198.624 2.00018 210.118 16.6397 210.604 34.9385H200.955C200.472 23.7415 193.295 14.8548 184.513 14.8545C175.417 14.8547 168.043 24.3859 168.043 36.1436C168.043 47.7276 175.201 57.1504 184.11 57.4268V57.4336H184.111C187.661 57.4337 190.538 60.3111 190.538 63.8604C190.538 67.4099 187.661 70.2879 184.111 70.2881C183.91 70.2881 183.71 70.2769 183.514 70.2588C169.557 69.5719 158.402 54.5631 158.402 36.1436C158.403 17.2867 170.093 2.00024 184.513 2Z" fill="#D4D4D4"/>
<path d="M184.513 2L184.513 0H184.513L184.513 2ZM210.604 34.9385V36.9385H212.657L212.603 34.8854L210.604 34.9385ZM200.955 34.9385L198.957 35.0248L199.04 36.9385H200.955V34.9385ZM184.513 14.8545L184.513 12.8545H184.513L184.513 14.8545ZM168.043 36.1436L166.043 36.1435V36.1436H168.043ZM184.11 57.4268H186.11V55.4878L184.172 55.4277L184.11 57.4268ZM184.11 57.4336H182.11V59.4336H184.11V57.4336ZM184.111 57.4336L184.111 55.4336H184.111V57.4336ZM190.538 63.8604H192.538V63.8602L190.538 63.8604ZM184.111 70.2881V72.2881H184.111L184.111 70.2881ZM183.514 70.2588L183.697 68.2672L183.655 68.2633L183.612 68.2612L183.514 70.2588ZM158.402 36.1436L156.402 36.1435V36.1436H158.402ZM184.513 2L184.513 4C197.09 4.00016 208.134 17.2614 208.604 34.9915L210.604 34.9385L212.603 34.8854C212.102 16.018 200.159 0.000200391 184.513 0L184.513 2ZM210.604 34.9385V32.9385H200.955V34.9385V36.9385H210.604V34.9385ZM200.955 34.9385L202.953 34.8522C202.444 23.0669 194.79 12.8548 184.513 12.8545L184.513 14.8545L184.513 16.8545C191.8 16.8547 198.499 24.4162 198.957 35.0248L200.955 34.9385ZM184.513 14.8545L184.513 12.8545C173.865 12.8548 166.043 23.789 166.043 36.1435L168.043 36.1436L170.043 36.1436C170.043 24.9827 176.969 16.8547 184.513 16.8545L184.513 14.8545ZM168.043 36.1436H166.043C166.043 48.3261 173.634 59.1027 184.048 59.4258L184.11 57.4268L184.172 55.4277C176.767 55.198 170.043 47.129 170.043 36.1436H168.043ZM184.11 57.4268H182.11V57.4336H184.11H186.11V57.4268H184.11ZM184.11 57.4336V59.4336H184.111V57.4336V55.4336H184.11V57.4336ZM184.111 57.4336L184.111 59.4336C186.556 59.4337 188.538 61.4156 188.538 63.8605L190.538 63.8604L192.538 63.8602C192.538 59.2065 188.765 55.4338 184.111 55.4336L184.111 57.4336ZM190.538 63.8604H188.538C188.538 66.3056 186.556 68.288 184.111 68.2881L184.111 70.2881L184.111 72.2881C188.766 72.2879 192.538 68.5141 192.538 63.8604H190.538ZM184.111 70.2881V68.2881C183.983 68.2881 183.846 68.281 183.697 68.2672L183.514 70.2588L183.33 72.2503C183.575 72.2729 183.837 72.2881 184.111 72.2881V70.2881ZM183.514 70.2588L183.612 68.2612C171.148 67.6478 160.402 53.9854 160.402 36.1436H158.402H156.402C156.402 55.1408 167.965 71.496 183.415 72.2564L183.514 70.2588ZM158.402 36.1436L160.402 36.1436C160.402 27.1152 163.203 19.0156 167.639 13.2155C172.073 7.41718 178.057 4.00011 184.513 4L184.513 2L184.513 0C176.549 0.000130892 169.477 4.22641 164.461 10.7856C159.447 17.343 156.402 26.315 156.402 36.1435L158.402 36.1436Z" fill="black" mask="url(#path-21-outside-8_370_441)"/>
<mask id="path-23-outside-9_370_441" maskUnits="userSpaceOnUse" x="206.604" y="0" width="57" height="73" fill="black">
<rect fill="white" x="206.604" width="57" height="73"/>
<path d="M234.714 2C248.825 2.00018 260.319 16.6397 260.805 34.9385H251.156C250.673 23.7414 243.497 14.8547 234.714 14.8545C225.618 14.8545 218.244 24.3857 218.244 36.1436C218.244 47.7277 225.402 57.1506 234.312 57.4268V57.4336C237.861 57.4336 240.739 60.311 240.739 63.8604C240.739 67.4099 237.861 70.2881 234.312 70.2881C234.11 70.2881 233.911 70.2769 233.715 70.2588C219.758 69.5721 208.604 54.5632 208.604 36.1436C208.604 17.2866 220.294 2.00001 234.714 2Z"/>
</mask>
<path d="M234.714 2C248.825 2.00018 260.319 16.6397 260.805 34.9385H251.156C250.673 23.7414 243.497 14.8547 234.714 14.8545C225.618 14.8545 218.244 24.3857 218.244 36.1436C218.244 47.7277 225.402 57.1506 234.312 57.4268V57.4336C237.861 57.4336 240.739 60.311 240.739 63.8604C240.739 67.4099 237.861 70.2881 234.312 70.2881C234.11 70.2881 233.911 70.2769 233.715 70.2588C219.758 69.5721 208.604 54.5632 208.604 36.1436C208.604 17.2866 220.294 2.00001 234.714 2Z" fill="#D4D4D4"/>
<path d="M234.714 2L234.714 0H234.714L234.714 2ZM260.805 34.9385V36.9385H262.858L262.804 34.8854L260.805 34.9385ZM251.156 34.9385L249.158 35.0248L249.241 36.9385H251.156V34.9385ZM234.714 14.8545L234.714 12.8545H234.714L234.714 14.8545ZM218.244 36.1436L216.244 36.1435V36.1436H218.244ZM234.312 57.4268H236.312V55.4878L234.373 55.4277L234.312 57.4268ZM234.312 57.4336H232.312V59.4336H234.312V57.4336ZM240.739 63.8604H242.739V63.8602L240.739 63.8604ZM234.312 70.2881L234.311 72.2881H234.312V70.2881ZM233.715 70.2588L233.898 68.2672L233.856 68.2633L233.813 68.2612L233.715 70.2588ZM208.604 36.1436L206.604 36.1435V36.1436H208.604ZM234.714 2L234.714 4C247.291 4.00016 258.335 17.2614 258.805 34.9915L260.805 34.9385L262.804 34.8854C262.303 16.018 250.36 0.000200391 234.714 0L234.714 2ZM260.805 34.9385V32.9385H251.156V34.9385V36.9385H260.805V34.9385ZM251.156 34.9385L253.154 34.8522C252.646 23.0668 244.992 12.8547 234.714 12.8545L234.714 14.8545L234.714 16.8545C242.002 16.8546 248.7 24.4161 249.158 35.0248L251.156 34.9385ZM234.714 14.8545L234.714 12.8545C224.066 12.8545 216.244 23.789 216.244 36.1435L218.244 36.1436L220.244 36.1436C220.244 24.9825 227.17 16.8545 234.714 16.8545L234.714 14.8545ZM218.244 36.1436H216.244C216.244 48.3262 223.835 59.103 234.25 59.4258L234.312 57.4268L234.373 55.4277C226.968 55.1982 220.244 47.1292 220.244 36.1436H218.244ZM234.312 57.4268H232.312V57.4336H234.312H236.312V57.4268H234.312ZM234.312 57.4336V59.4336C236.757 59.4336 238.739 61.4158 238.739 63.8605L240.739 63.8604L242.739 63.8602C242.739 59.2061 238.965 55.4336 234.312 55.4336V57.4336ZM240.739 63.8604H238.739C238.739 66.3054 236.757 68.2881 234.312 68.2881V70.2881V72.2881C238.966 72.2881 242.739 68.5145 242.739 63.8604H240.739ZM234.312 70.2881L234.312 68.2881C234.184 68.2881 234.047 68.281 233.898 68.2672L233.715 70.2588L233.531 72.2504C233.775 72.2728 234.037 72.2881 234.311 72.2881L234.312 70.2881ZM233.715 70.2588L233.813 68.2612C221.349 67.648 210.604 53.9856 210.604 36.1436H208.604H206.604C206.604 55.1409 218.166 71.4962 233.617 72.2564L233.715 70.2588ZM208.604 36.1436L210.604 36.1436C210.604 27.1152 213.404 19.0155 217.84 13.2153C222.274 7.41704 228.258 4 234.714 4L234.714 2L234.714 0C226.75 5.72205e-06 219.679 4.22625 214.663 10.7855C209.648 17.3429 206.604 26.3149 206.604 36.1435L208.604 36.1436Z" fill="black" mask="url(#path-23-outside-9_370_441)"/>
<mask id="path-25-outside-10_370_441" maskUnits="userSpaceOnUse" x="256.805" y="0" width="57" height="73" fill="black">
<rect fill="white" x="256.805" width="57" height="73"/>
<path d="M284.915 2C299.027 2.00018 310.52 16.6397 311.006 34.9385H301.357C300.874 23.7414 293.698 14.8547 284.915 14.8545C275.819 14.8545 268.445 24.3857 268.445 36.1436C268.445 47.7277 275.603 57.1506 284.513 57.4268V57.4336C288.062 57.4336 290.94 60.311 290.94 63.8604C290.94 67.4099 288.062 70.2881 284.513 70.2881C284.311 70.2881 284.113 70.2769 283.916 70.2588C269.959 69.5721 258.805 54.5632 258.805 36.1436C258.805 17.2866 270.495 2.00001 284.915 2Z"/>
</mask>
<path d="M284.915 2C299.027 2.00018 310.52 16.6397 311.006 34.9385H301.357C300.874 23.7414 293.698 14.8547 284.915 14.8545C275.819 14.8545 268.445 24.3857 268.445 36.1436C268.445 47.7277 275.603 57.1506 284.513 57.4268V57.4336C288.062 57.4336 290.94 60.311 290.94 63.8604C290.94 67.4099 288.062 70.2881 284.513 70.2881C284.311 70.2881 284.113 70.2769 283.916 70.2588C269.959 69.5721 258.805 54.5632 258.805 36.1436C258.805 17.2866 270.495 2.00001 284.915 2Z" fill="#D4D4D4"/>
<path d="M284.915 2L284.915 0H284.915L284.915 2ZM311.006 34.9385V36.9385H313.06L313.005 34.8854L311.006 34.9385ZM301.357 34.9385L299.359 35.0248L299.442 36.9385H301.357V34.9385ZM284.915 14.8545L284.915 12.8545H284.915L284.915 14.8545ZM268.445 36.1436L266.445 36.1435V36.1436H268.445ZM284.513 57.4268H286.513V55.4878L284.575 55.4277L284.513 57.4268ZM284.513 57.4336H282.513V59.4336H284.513V57.4336ZM290.94 63.8604H292.94V63.8602L290.94 63.8604ZM284.513 70.2881L284.513 72.2881H284.513V70.2881ZM283.916 70.2588L284.1 68.2672L284.057 68.2633L284.014 68.2612L283.916 70.2588ZM258.805 36.1436L256.805 36.1435V36.1436H258.805ZM284.915 2L284.915 4C297.492 4.00016 308.536 17.2614 309.007 34.9915L311.006 34.9385L313.005 34.8854C312.505 16.018 300.561 0.000200391 284.915 0L284.915 2ZM311.006 34.9385V32.9385H301.357V34.9385V36.9385H311.006V34.9385ZM301.357 34.9385L303.356 34.8522C302.847 23.0668 295.193 12.8547 284.915 12.8545L284.915 14.8545L284.915 16.8545C292.203 16.8546 298.901 24.4161 299.359 35.0248L301.357 34.9385ZM284.915 14.8545L284.915 12.8545C274.268 12.8545 266.445 23.789 266.445 36.1435L268.445 36.1436L270.445 36.1436C270.445 24.9825 277.371 16.8545 284.915 16.8545L284.915 14.8545ZM268.445 36.1436H266.445C266.445 48.3262 274.036 59.103 284.451 59.4258L284.513 57.4268L284.575 55.4277C277.169 55.1982 270.445 47.1292 270.445 36.1436H268.445ZM284.513 57.4268H282.513V57.4336H284.513H286.513V57.4268H284.513ZM284.513 57.4336V59.4336C286.958 59.4336 288.94 61.4158 288.94 63.8605L290.94 63.8604L292.94 63.8602C292.94 59.2061 289.166 55.4336 284.513 55.4336V57.4336ZM290.94 63.8604H288.94C288.94 66.3054 286.958 68.2881 284.513 68.2881V70.2881V72.2881C289.167 72.2881 292.94 68.5145 292.94 63.8604H290.94ZM284.513 70.2881L284.513 68.2881C284.385 68.2881 284.249 68.281 284.1 68.2672L283.916 70.2588L283.733 72.2504C283.976 72.2728 284.238 72.2881 284.513 72.2881L284.513 70.2881ZM283.916 70.2588L284.014 68.2612C271.55 67.648 260.805 53.9856 260.805 36.1436H258.805H256.805C256.805 55.1409 268.367 71.4962 283.818 72.2564L283.916 70.2588ZM258.805 36.1436L260.805 36.1436C260.805 27.1152 263.606 19.0155 268.041 13.2153C272.475 7.41704 278.459 4 284.915 4L284.915 2L284.915 0C276.951 5.72205e-06 269.88 4.22625 264.864 10.7855C259.849 17.3429 256.805 26.3149 256.805 36.1435L258.805 36.1436Z" fill="black" mask="url(#path-25-outside-10_370_441)"/>
</svg>
