<?xml version="1.0" encoding="UTF-8" standalone="no"?>
<!DOCTYPE svg PUBLIC "-//W3C//DTD SVG 1.1//EN" "http://www.w3.org/Graphics/SVG/1.1/DTD/svg11.dtd">
<svg width="100%" height="100%" viewBox="0 0 26 28" version="1.1" xmlns="http://www.w3.org/2000/svg" xmlns:xlink="http://www.w3.org/1999/xlink" xml:space="preserve" xmlns:serif="http://www.serif.com/" style="fill-rule:evenodd;clip-rule:evenodd;stroke-linecap:round;stroke-linejoin:round;stroke-miterlimit:1.5;">
    <g transform="matrix(1,0,0,1,0.919917,1.10985)">
        <g transform="matrix(1.07436,0,0,1,-0.749515,0)">
            <path d="M1.74,7.84L18.42,7.84" style="fill:none;stroke:black;stroke-width:2.31px;"/>
        </g>
        <g transform="matrix(1,0,0,1.27681,0,-0.138405)">
            <path d="M4.48,2.74L4.48,0.5" style="fill:none;stroke:black;stroke-width:2.09px;"/>
        </g>
        <g transform="matrix(1,0,0,1.27681,0,-0.138405)">
            <path d="M15.68,0.5L15.68,2.74" style="fill:none;stroke:black;stroke-width:2.09px;"/>
        </g>
        <path d="M7.58,21.28L2.32,21.28C2.002,21.28 1.697,21.154 1.472,20.929C1.247,20.704 1.12,20.399 1.12,20.08C1.12,16.819 1.12,7.821 1.12,4.56C1.12,4.242 1.247,3.937 1.472,3.712C1.697,3.487 2.002,3.36 2.32,3.36C5.581,3.36 14.579,3.36 17.84,3.36C18.158,3.36 18.464,3.487 18.689,3.712C18.914,3.937 19.04,4.242 19.04,4.56C19.04,6.421 19.04,9.79 19.04,9.79" style="fill:none;stroke:black;stroke-width:2.4px;"/>
        <g transform="matrix(0.987902,0,0,0.967809,-2.47084,-2.20803)">
            <ellipse cx="19.195" cy="21.637" rx="6.061" ry="6.187" style="fill:none;stroke:black;stroke-width:2.45px;"/>
        </g>
        <g transform="matrix(0.98481,0,0,0.967586,-0.514944,0.399352)">
            <ellipse cx="6.209" cy="12.32" rx="0.609" ry="0.62" style="stroke:black;stroke-width:1.23px;"/>
        </g>
        <g transform="matrix(0.98481,0,0,0.967586,3.96555,0.399352)">
            <ellipse cx="6.209" cy="12.32" rx="0.609" ry="0.62" style="stroke:black;stroke-width:1.23px;"/>
        </g>
        <g transform="matrix(0.98481,0,0,0.967586,-0.514944,4.87885)">
            <ellipse cx="6.209" cy="12.32" rx="0.609" ry="0.62" style="stroke:black;stroke-width:1.23px;"/>
        </g>
        <g transform="matrix(0.61765,0,0,0.598995,8.23761,6.65137)">
            <ellipse cx="13.365" cy="20.169" rx="4.048" ry="4.174" style="fill:none;"/>
        </g>
        <g transform="matrix(1,0,0,1,-0.919917,-1.10985)">
            <path d="M17.412,17.342L17.412,19.842L19.554,21.132" style="fill:none;stroke:black;stroke-width:2.4px;"/>
        </g>
    </g>
</svg>
