<svg width="220" height="220" viewBox="0 0 220 220" fill="none" xmlns="http://www.w3.org/2000/svg">
<path d="M172.999 45.9083L84.0527 26.6992C80.6093 25.9555 77.0286 27.0785 74.6267 29.6555L14.564 94.0936C9.37052 99.6654 12.0642 108.766 19.4536 110.613L51 118.5L74.95 168.355C75.3152 169.115 75.7751 169.826 76.3187 170.471L92.5835 189.762C95.2454 192.919 99.5742 194.115 103.479 192.773L158.521 173.852C160.146 173.293 161.888 173.163 163.578 173.474L174.726 175.521C180.511 176.584 185.959 172.449 186.492 166.591L187.658 153.759C187.879 151.336 188.974 149.077 190.74 147.404L195.53 142.866C196.82 141.644 197.761 140.101 198.256 138.394L200.498 130.673C201.436 127.443 200.688 123.959 198.507 121.4L193.13 115.088C191.444 113.108 190.595 110.548 190.764 107.952L191.657 94.266C191.871 90.9707 190.446 87.7817 187.847 85.7446L173.5 74.5L180.034 59.728C182.597 53.9332 179.193 47.2459 172.999 45.9083Z" fill="white"/>
<circle cx="180" cy="87" r="10" fill="white"/>
<circle cx="186" cy="95" r="10" fill="white"/>
<circle cx="192" cy="118" r="10" fill="white"/>
<circle cx="199" cy="125" r="10" fill="white"/>
<circle cx="181" cy="171" r="10" fill="white"/>
<ellipse cx="67.4625" cy="136.512" rx="15" ry="29.0587" transform="rotate(-21.1189 67.4625 136.512)" fill="white"/>
<path d="M156.368 109.858L148.292 83.5707L66.5625 108.681L74.6389 134.968C79.6718 142.837 100.089 149.641 123.491 142.451C146.91 135.256 155.372 118.533 156.368 109.858Z" fill="black"/>
<path d="M37.082 104.662L92.0633 46.9703L169.952 63.8392L114.677 120.575L37.082 104.662Z" fill="black"/>
<path d="M78.8197 158.791L75.114 141.622L82.7612 139.273L88.8567 155.707C89.444 157.619 89.3692 160.78 85.5456 161.955C81.722 163.13 79.4071 160.703 78.8197 158.791Z" fill="black"/>
<path d="M85.7412 133.65C87.1199 138.137 84.5998 142.892 80.1124 144.271C75.625 145.65 70.8695 143.13 69.4908 138.642C68.1122 134.155 70.6323 129.399 75.1197 128.021C79.6071 126.642 84.3625 129.162 85.7412 133.65Z" fill="black"/>
<path d="M146.74 102.355L139.545 78.9352L57.8154 104.046L65.0108 127.465C70.0437 135.334 90.4605 142.138 113.863 134.948C137.282 127.752 145.744 111.03 146.74 102.355Z" fill="#333333" stroke="black" stroke-width="5"/>
<path d="M27.4538 97.1586L82.4351 39.4671L160.324 56.336L105.049 113.072L27.4538 97.1586Z" fill="#333333" stroke="black" stroke-width="5"/>
<path d="M69.1915 151.288L65.4859 134.119L73.1331 131.769L79.2285 148.204C79.8159 150.116 79.741 153.277 75.9174 154.452C72.0938 155.627 69.7789 153.2 69.1915 151.288Z" fill="#FFFF00"/>
<circle cx="67.9877" cy="128.643" r="8.5" transform="rotate(-17.0789 67.9877 128.643)" fill="#FFC400"/>
<path d="M93.7422 76.2693L61.233 106.657L67.4005 126.731" stroke="#FFFF00" stroke-width="5" stroke-linecap="round"/>
<ellipse cx="93.7422" cy="76.2693" rx="7.5" ry="5" transform="rotate(-17.0789 93.7422 76.2693)" fill="black"/>
<path d="M102.513 178.745L132.997 108.5L177.497 154L107.764 184.012C104.436 185.444 101.071 182.068 102.513 178.745Z" fill="black"/>
<path d="M177.859 153.477C172.345 158.896 157.927 153.168 145.655 140.682C133.384 128.196 127.907 113.68 133.422 108.261C138.936 102.841 153.354 108.569 165.626 121.056C177.897 133.542 183.374 148.057 177.859 153.477Z" fill="black"/>
<path d="M112.997 86.5C112.997 87.8807 111.877 89 110.497 89C109.116 89 107.997 87.8807 107.997 86.5C107.997 85.1193 109.116 84 110.497 84C111.877 84 112.997 85.1193 112.997 86.5Z" fill="black"/>
<path d="M189.997 94.5C189.997 95.8807 188.877 97 187.497 97C186.116 97 184.997 95.8807 184.997 94.5C184.997 93.1193 186.116 92 187.497 92C188.877 92 189.997 93.1193 189.997 94.5Z" fill="black"/>
<path d="M132.997 148.5C132.997 149.881 131.877 151 130.497 151C129.116 151 127.997 149.881 127.997 148.5C127.997 147.119 129.116 146 130.497 146C131.877 146 132.997 147.119 132.997 148.5Z" fill="black"/>
<path d="M185.997 114.5C185.997 116.985 183.982 119 181.497 119C179.011 119 176.997 116.985 176.997 114.5C176.997 112.015 179.011 110 181.497 110C183.982 110 185.997 112.015 185.997 114.5Z" fill="black"/>
<path d="M117.997 114.5C117.997 116.433 116.43 118 114.497 118C112.564 118 110.997 116.433 110.997 114.5C110.997 112.567 112.564 111 114.497 111C116.43 111 117.997 112.567 117.997 114.5Z" fill="black"/>
<path d="M148.997 166C148.997 168.209 147.206 170 144.997 170C142.788 170 140.997 168.209 140.997 166C140.997 163.791 142.788 162 144.997 162C147.206 162 148.997 163.791 148.997 166Z" fill="black"/>
<path d="M184.997 171C184.997 172.657 183.654 174 181.997 174C180.34 174 178.997 172.657 178.997 171C178.997 169.343 180.34 168 181.997 168C183.654 168 184.997 169.343 184.997 171Z" fill="black"/>
<path d="M202.997 125C202.997 126.657 201.654 128 199.997 128C198.34 128 196.997 126.657 196.997 125C196.997 123.343 198.34 122 199.997 122C201.654 122 202.997 123.343 202.997 125Z" fill="black"/>
<path d="M95.5163 171.745L126 101.5L170.5 147L100.767 177.012C97.4394 178.444 94.0741 175.068 95.5163 171.745Z" fill="#FDFD4E" stroke="black" stroke-width="5" stroke-linejoin="round"/>
<ellipse cx="148.644" cy="123.869" rx="31.6987" ry="14" transform="rotate(45.4975 148.644 123.869)" fill="#FDC34E" stroke="black" stroke-width="5"/>
<path d="M133 79.5C133 79.5 139.5 83.7774 140.5 90.5C141.5 97.2226 136 105 136 105" stroke="#7DF9FF" stroke-width="5" stroke-linecap="round" stroke-linejoin="round"/>
<circle cx="103.5" cy="79.5" r="2.5" fill="#7DF9FF"/>
<circle cx="180.5" cy="87.5" r="2.5" fill="#7DF9FF"/>
<circle cx="123.5" cy="141.5" r="2.5" fill="#7DF9FF"/>
<path d="M154 121C154 121 148.5 121 148.5 116.5C148.5 112 154 112 154 112C154 112 161.22 113 161.5 108.5C161.78 104 157 103.5 157 103.5C157 103.5 150.565 101.5 151.5 97.5C152.435 93.5 159 94.5 159 94.5C159 94.5 163.744 95 164 90.5C164.256 86 159 86 159 86" stroke="#FF00F5" stroke-width="5" stroke-linecap="round" stroke-linejoin="round"/>
<path d="M159 135.5C159 135.5 166 129.405 174.5 129.5C183 129.595 190.5 135.5 190.5 135.5" stroke="#FF4911" stroke-width="5" stroke-linecap="round" stroke-linejoin="round"/>
<circle cx="174.5" cy="107.5" r="4.5" fill="#FF4911"/>
<circle cx="107.5" cy="107.5" r="3.5" fill="#FF4911"/>
<circle cx="138" cy="159" r="4" fill="#FF4911"/>
<circle cx="175" cy="164" r="3" fill="#FFC300"/>
<circle cx="193" cy="118" r="3" fill="#FFC300"/>
</svg>
