<svg width="528" height="220" viewBox="0 0 528 220" fill="none" xmlns="http://www.w3.org/2000/svg">
<path d="M188.999 45.9083L100.053 26.6992C96.6093 25.9555 93.0286 27.0785 90.6267 29.6555L30.564 94.0936C25.3705 99.6654 28.0642 108.766 35.4536 110.613L67 118.5L90.95 168.355C91.3152 169.115 91.7751 169.826 92.3187 170.471L108.583 189.762C111.245 192.919 115.574 194.115 119.479 192.773L174.521 173.852C176.146 173.293 177.888 173.163 179.578 173.474L190.726 175.521C196.511 176.584 201.959 172.449 202.492 166.591L203.658 153.759C203.879 151.336 204.974 149.077 206.74 147.404L211.53 142.866C212.82 141.644 213.761 140.101 214.256 138.394L216.498 130.673C217.436 127.443 216.688 123.959 214.507 121.4L209.13 115.088C207.444 113.108 206.595 110.548 206.764 107.952L207.657 94.266C207.871 90.9707 206.446 87.7817 203.847 85.7446L189.5 74.5L196.034 59.728C198.597 53.9332 195.193 47.2459 188.999 45.9083Z" fill="white"/>
<circle cx="196" cy="87" r="10" fill="white"/>
<circle cx="202" cy="95" r="10" fill="white"/>
<circle cx="208" cy="118" r="10" fill="white"/>
<circle cx="215" cy="125" r="10" fill="white"/>
<circle cx="197" cy="171" r="10" fill="white"/>
<ellipse cx="83.4625" cy="136.512" rx="15" ry="29.0587" transform="rotate(-21.1189 83.4625 136.512)" fill="white"/>
<path d="M172.368 109.858L164.292 83.5707L82.5625 108.681L90.6389 134.968C95.6718 142.837 116.089 149.641 139.491 142.451C162.91 135.256 171.372 118.533 172.368 109.858Z" fill="black"/>
<path d="M53.082 104.662L108.063 46.9704L185.952 63.8392L130.677 120.575L53.082 104.662Z" fill="black"/>
<path d="M94.8197 158.791L91.114 141.622L98.7612 139.273L104.857 155.707C105.444 157.619 105.369 160.78 101.546 161.955C97.722 163.13 95.4071 160.703 94.8197 158.791Z" fill="black"/>
<path d="M101.741 133.65C103.12 138.137 100.6 142.892 96.1124 144.271C91.625 145.65 86.8695 143.13 85.4908 138.642C84.1122 134.155 86.6323 129.399 91.1197 128.021C95.6071 126.642 100.362 129.162 101.741 133.65Z" fill="black"/>
<path d="M162.74 102.355L155.545 78.9352L73.8154 104.046L81.0108 127.465C86.0437 135.334 106.46 142.138 129.863 134.948C153.282 127.752 161.744 111.03 162.74 102.355Z" fill="#333333" stroke="black" stroke-width="5"/>
<path d="M43.4538 97.1586L98.4351 39.4671L176.324 56.336L121.049 113.072L43.4538 97.1586Z" fill="#333333" stroke="black" stroke-width="5"/>
<path d="M85.1915 151.288L81.4859 134.119L89.1331 131.769L95.2285 148.204C95.8159 150.116 95.741 153.277 91.9174 154.452C88.0938 155.627 85.7789 153.2 85.1915 151.288Z" fill="#FFFF00"/>
<circle cx="83.9877" cy="128.643" r="8.5" transform="rotate(-17.0789 83.9877 128.643)" fill="#FFC400"/>
<path d="M109.742 76.2693L77.233 106.657L83.4005 126.731" stroke="#FFFF00" stroke-width="5" stroke-linecap="round"/>
<ellipse cx="109.742" cy="76.2693" rx="7.5" ry="5" transform="rotate(-17.0789 109.742 76.2693)" fill="black"/>
<path d="M118.513 178.745L148.997 108.5L193.497 154L123.764 184.012C120.436 185.444 117.071 182.068 118.513 178.745Z" fill="black"/>
<path d="M193.859 153.477C188.345 158.896 173.927 153.168 161.655 140.682C149.384 128.196 143.907 113.68 149.422 108.261C154.936 102.841 169.354 108.569 181.626 121.056C193.897 133.542 199.374 148.057 193.859 153.477Z" fill="black"/>
<path d="M128.997 86.5C128.997 87.8807 127.877 89 126.497 89C125.116 89 123.997 87.8807 123.997 86.5C123.997 85.1193 125.116 84 126.497 84C127.877 84 128.997 85.1193 128.997 86.5Z" fill="black"/>
<path d="M205.997 94.5C205.997 95.8807 204.877 97 203.497 97C202.116 97 200.997 95.8807 200.997 94.5C200.997 93.1193 202.116 92 203.497 92C204.877 92 205.997 93.1193 205.997 94.5Z" fill="black"/>
<path d="M148.997 148.5C148.997 149.881 147.877 151 146.497 151C145.116 151 143.997 149.881 143.997 148.5C143.997 147.119 145.116 146 146.497 146C147.877 146 148.997 147.119 148.997 148.5Z" fill="black"/>
<path d="M201.997 114.5C201.997 116.985 199.982 119 197.497 119C195.011 119 192.997 116.985 192.997 114.5C192.997 112.015 195.011 110 197.497 110C199.982 110 201.997 112.015 201.997 114.5Z" fill="black"/>
<path d="M133.997 114.5C133.997 116.433 132.43 118 130.497 118C128.564 118 126.997 116.433 126.997 114.5C126.997 112.567 128.564 111 130.497 111C132.43 111 133.997 112.567 133.997 114.5Z" fill="black"/>
<path d="M164.997 166C164.997 168.209 163.206 170 160.997 170C158.788 170 156.997 168.209 156.997 166C156.997 163.791 158.788 162 160.997 162C163.206 162 164.997 163.791 164.997 166Z" fill="black"/>
<path d="M200.997 171C200.997 172.657 199.654 174 197.997 174C196.34 174 194.997 172.657 194.997 171C194.997 169.343 196.34 168 197.997 168C199.654 168 200.997 169.343 200.997 171Z" fill="black"/>
<path d="M218.997 125C218.997 126.657 217.654 128 215.997 128C214.34 128 212.997 126.657 212.997 125C212.997 123.343 214.34 122 215.997 122C217.654 122 218.997 123.343 218.997 125Z" fill="black"/>
<path d="M111.516 171.745L142 101.5L186.5 147L116.767 177.012C113.439 178.444 110.074 175.068 111.516 171.745Z" fill="#FDFD4E" stroke="black" stroke-width="5" stroke-linejoin="round"/>
<ellipse cx="164.644" cy="123.869" rx="31.6987" ry="14" transform="rotate(45.4975 164.644 123.869)" fill="#FDC34E" stroke="black" stroke-width="5"/>
<path d="M149 79.5C149 79.5 155.5 83.7774 156.5 90.5C157.5 97.2226 152 105 152 105" stroke="#7DF9FF" stroke-width="5" stroke-linecap="round" stroke-linejoin="round"/>
<circle cx="119.5" cy="79.5" r="2.5" fill="#7DF9FF"/>
<circle cx="196.5" cy="87.5" r="2.5" fill="#7DF9FF"/>
<circle cx="139.5" cy="141.5" r="2.5" fill="#7DF9FF"/>
<path d="M170 121C170 121 164.5 121 164.5 116.5C164.5 112 170 112 170 112C170 112 177.22 113 177.5 108.5C177.78 104 173 103.5 173 103.5C173 103.5 166.565 101.5 167.5 97.5C168.435 93.5 175 94.5 175 94.5C175 94.5 179.744 95 180 90.5C180.256 86 175 86 175 86" stroke="#FF00F5" stroke-width="5" stroke-linecap="round" stroke-linejoin="round"/>
<path d="M175 135.5C175 135.5 182 129.405 190.5 129.5C199 129.595 206.5 135.5 206.5 135.5" stroke="#FF4911" stroke-width="5" stroke-linecap="round" stroke-linejoin="round"/>
<circle cx="190.5" cy="107.5" r="4.5" fill="#FF4911"/>
<circle cx="123.5" cy="107.5" r="3.5" fill="#FF4911"/>
<circle cx="154" cy="159" r="4" fill="#FF4911"/>
<circle cx="191" cy="164" r="3" fill="#FFC300"/>
<circle cx="209" cy="118" r="3" fill="#FFC300"/>
<path d="M267.48 88.32C260.024 88.32 255.64 83.968 255.64 77.28C255.64 70.592 260.024 66.24 267.48 66.24C274.68 66.24 279 69.664 279 75.392V75.936H272.28V75.392C272.28 72.96 271.128 72 267.576 72C263.224 72 262.04 73.024 262.04 77.28C262.04 81.536 263.224 82.56 267.576 82.56C271.128 82.56 272.28 81.6 272.28 79.168V78.624H279V79.168C279 84.896 274.68 88.32 267.48 88.32ZM304.937 88H298.185L307.433 66.56H316.041L325.321 88H318.409L316.777 84.032H306.601L304.937 88ZM310.121 75.616L308.873 78.624H314.569L313.321 75.616L311.913 72H311.497L310.121 75.616ZM350.861 88H344.845V66.56H353.005L356.941 75.456L359.053 80.992H359.469L361.485 75.456L365.229 66.56H373.389V88H367.373V79.136L367.597 75.552H367.181L365.965 79.136L362.765 86.72H355.469L352.269 79.136L351.053 75.552H350.637L350.861 79.136V88ZM400.21 88H394.194V66.56H406.066C411.154 66.56 414.354 69.472 414.354 74.56C414.354 79.648 411.154 82.592 406.066 82.592H400.21V88ZM405.394 71.968H400.21V77.184H405.394C407.506 77.184 408.37 76.768 408.37 74.56C408.37 72.384 407.506 71.968 405.394 71.968ZM445.327 88.32C437.839 88.32 434.383 84.704 434.383 79.008V66.56H440.399V78.528C440.399 81.568 441.263 82.496 445.327 82.496C449.391 82.496 450.255 81.568 450.255 78.528V66.56H456.271V79.008C456.271 84.704 452.815 88.32 445.327 88.32ZM487.354 88.32C480.794 88.32 476.794 85.984 476.794 80.544V80.352H482.81V81.024C482.81 82.464 483.322 82.848 487.354 82.848C491.002 82.848 491.386 82.56 491.386 81.6C491.386 80.832 490.97 80.512 489.21 80.288L482.49 79.392C478.49 78.848 476.474 76.704 476.474 73.248C476.474 69.824 479.13 66.24 486.874 66.24C493.69 66.24 496.954 69.216 496.954 74.016V74.208H490.938V73.728C490.938 72.192 490.266 71.68 486.234 71.68C483.162 71.68 482.49 72.096 482.49 73.024C482.49 73.696 482.874 74.016 484.026 74.176L490.746 75.168C495.994 75.936 497.402 78.624 497.402 81.376C497.402 85.056 494.586 88.32 487.354 88.32Z" fill="#1FAA1F"/>
<path d="M268.952 149H256.92V106.12H280.664C290.84 106.12 297.24 111.944 297.24 122.12C297.24 132.296 290.84 138.184 280.664 138.184H268.952V149ZM279.32 116.936H268.952V127.368H279.32C283.544 127.368 285.272 126.536 285.272 122.12C285.272 117.768 283.544 116.936 279.32 116.936ZM328.467 149.64C313.491 149.64 306.579 142.408 306.579 131.016V106.12H318.611V130.056C318.611 136.136 320.339 137.992 328.467 137.992C336.595 137.992 338.323 136.136 338.323 130.056V106.12H350.355V131.016C350.355 142.408 343.443 149.64 328.467 149.64ZM397.8 149H361V106.12H373.032V138.184H397.8V149ZM428.84 149.64C415.72 149.64 407.72 144.968 407.72 134.088V133.704H419.752V135.048C419.752 137.928 420.776 138.696 428.84 138.696C436.136 138.696 436.904 138.12 436.904 136.2C436.904 134.664 436.072 134.024 432.552 133.576L419.112 131.784C411.112 130.696 407.08 126.408 407.08 119.496C407.08 112.648 412.392 105.48 427.88 105.48C441.512 105.48 448.04 111.432 448.04 121.032V121.416H436.008V120.456C436.008 117.384 434.664 116.36 426.6 116.36C420.456 116.36 419.112 117.192 419.112 119.048C419.112 120.392 419.88 121.032 422.184 121.352L435.624 123.336C446.12 124.872 448.936 130.248 448.936 135.752C448.936 143.112 443.304 149.64 428.84 149.64ZM496.91 149H458.83V106.12H496.91V116.936H470.862V122.056H495.95V132.808H470.862V138.184H496.91V149Z" fill="black"/>
</svg>
