<?xml version="1.0" encoding="UTF-8" standalone="no"?>
<!DOCTYPE svg PUBLIC "-//W3C//DTD SVG 1.1//EN" "http://www.w3.org/Graphics/SVG/1.1/DTD/svg11.dtd">
<svg width="100%" height="100%" viewBox="0 0 22 32" version="1.1" xmlns="http://www.w3.org/2000/svg" xmlns:xlink="http://www.w3.org/1999/xlink" xml:space="preserve" xmlns:serif="http://www.serif.com/" style="fill-rule:evenodd;clip-rule:evenodd;stroke-linecap:round;stroke-linejoin:round;stroke-miterlimit:1.5;">
    <g transform="matrix(1,0,0,1,3.55271e-15,1)">
        <g transform="matrix(1.8625,0,0,1.81543,-11,-9.65704)">
            <path d="M14.765,16.943C13.983,18.33 12.982,19.768 11.812,21.294C8.857,17.441 6.98,14.144 6.98,10.828C6.98,8.092 9.145,5.87 11.812,5.87C14.479,5.87 16.644,8.092 16.644,10.828C16.644,11.411 16.586,11.995 16.474,12.58" style="fill:none;stroke:black;stroke-width:1.3px;"/>
        </g>
        <g transform="matrix(1,0,0,1,-4.5,-6.5)">
            <g transform="matrix(1,0,0,1,2.5,4)">
                <circle cx="13" cy="12.5" r="4.5" style="fill:none;stroke:black;stroke-width:2.4px;"/>
            </g>
            <path d="M18.681,19.681L24,25" style="fill:none;stroke:black;stroke-width:2.4px;"/>
        </g>
    </g>
</svg>
