<svg width="59" height="78" viewBox="0 0 59 78" fill="none" xmlns="http://www.w3.org/2000/svg">
<g clip-path="url(#clip0_474_160)">
<mask id="path-1-outside-1_474_160" maskUnits="userSpaceOnUse" x="0" y="0" width="59" height="78" fill="black">
<rect fill="white" width="59" height="78"/>
<path d="M29.5 2C44.6878 2 57 14.3122 57 29.5C57 33.5329 56.1309 37.3683 54.5674 40.8242C53.4829 43.2213 51.4325 46.4286 49.0605 49.8037C46.6657 53.2115 43.8618 56.9031 41.1953 60.3018C38.527 63.7028 35.9858 66.8242 34.1123 69.0947C33.1752 70.2304 32.4041 71.1546 31.8672 71.7949C31.5989 72.1148 31.3883 72.3636 31.2451 72.5332C31.1735 72.618 31.1182 72.6837 31.0811 72.7275C31.0626 72.7493 31.0486 72.7661 31.0391 72.7773C31.0344 72.7829 31.0308 72.7871 31.0283 72.79C31.0271 72.7915 31.0261 72.7932 31.0254 72.7939H31.0244C31.0189 72.7896 30.9311 72.7156 29.5 71.5L31.0244 72.7949L29.5 74.5889L27.9756 72.7949L29.5 71.5C28.0689 72.7156 27.9811 72.7896 27.9756 72.7939H27.9746C27.9739 72.7932 27.9729 72.7915 27.9717 72.79C27.9692 72.7871 27.9656 72.7829 27.9609 72.7773C27.9514 72.7661 27.9374 72.7493 27.9189 72.7275C27.8818 72.6837 27.8265 72.618 27.7549 72.5332C27.6117 72.3636 27.4011 72.1148 27.1328 71.7949C26.5959 71.1546 25.8248 70.2304 24.8877 69.0947C23.0142 66.8242 20.473 63.7028 17.8047 60.3018C15.1382 56.9031 12.3343 53.2115 9.93945 49.8037C7.56751 46.4286 5.51714 43.2213 4.43262 40.8242C2.86912 37.3683 2 33.5329 2 29.5C2 14.3122 14.3122 2 29.5 2ZM29.5 9C18.1782 9 9 18.1782 9 29.5C9 40.8218 18.1782 50 29.5 50C40.8218 50 50 40.8218 50 29.5C50 18.1782 40.8218 9 29.5 9Z"/>
</mask>
<path d="M29.5 2C44.6878 2 57 14.3122 57 29.5C57 33.5329 56.1309 37.3683 54.5674 40.8242C53.4829 43.2213 51.4325 46.4286 49.0605 49.8037C46.6657 53.2115 43.8618 56.9031 41.1953 60.3018C38.527 63.7028 35.9858 66.8242 34.1123 69.0947C33.1752 70.2304 32.4041 71.1546 31.8672 71.7949C31.5989 72.1148 31.3883 72.3636 31.2451 72.5332C31.1735 72.618 31.1182 72.6837 31.0811 72.7275C31.0626 72.7493 31.0486 72.7661 31.0391 72.7773C31.0344 72.7829 31.0308 72.7871 31.0283 72.79C31.0271 72.7915 31.0261 72.7932 31.0254 72.7939H31.0244C31.0189 72.7896 30.9311 72.7156 29.5 71.5L31.0244 72.7949L29.5 74.5889L27.9756 72.7949L29.5 71.5C28.0689 72.7156 27.9811 72.7896 27.9756 72.7939H27.9746C27.9739 72.7932 27.9729 72.7915 27.9717 72.79C27.9692 72.7871 27.9656 72.7829 27.9609 72.7773C27.9514 72.7661 27.9374 72.7493 27.9189 72.7275C27.8818 72.6837 27.8265 72.618 27.7549 72.5332C27.6117 72.3636 27.4011 72.1148 27.1328 71.7949C26.5959 71.1546 25.8248 70.2304 24.8877 69.0947C23.0142 66.8242 20.473 63.7028 17.8047 60.3018C15.1382 56.9031 12.3343 53.2115 9.93945 49.8037C7.56751 46.4286 5.51714 43.2213 4.43262 40.8242C2.86912 37.3683 2 33.5329 2 29.5C2 14.3122 14.3122 2 29.5 2ZM29.5 9C18.1782 9 9 18.1782 9 29.5C9 40.8218 18.1782 50 29.5 50C40.8218 50 50 40.8218 50 29.5C50 18.1782 40.8218 9 29.5 9Z" fill="#AA310B"/>
<path d="M54.5674 40.8242L56.3896 41.6486L56.3896 41.6486L54.5674 40.8242ZM49.0605 49.8037L50.6969 50.9537L50.6969 50.9537L49.0605 49.8037ZM41.1953 60.3018L42.7688 61.5363L42.7688 61.5363L41.1953 60.3018ZM34.1123 69.0947L35.6549 70.3676L35.6549 70.3676L34.1123 69.0947ZM31.8672 71.7949L33.3996 73.0801L33.3996 73.0801L31.8672 71.7949ZM31.2451 72.5332L32.7733 73.8234L32.7733 73.8234L31.2451 72.5332ZM31.0811 72.7275L32.6072 74.0201L32.6072 74.0201L31.0811 72.7275ZM31.0391 72.7773L32.5643 74.071L32.5643 74.071L31.0391 72.7773ZM31.0283 72.79L32.5531 74.0843L32.5531 74.0843L31.0283 72.79ZM31.0254 72.7939V74.7939H31.9509L32.5499 74.0884L31.0254 72.7939ZM31.0244 72.7939L29.7918 74.369L30.3348 74.7939H31.0244V72.7939ZM29.5 71.5L30.7948 69.9757L29.5 68.8759L28.2052 69.9757L29.5 71.5ZM31.0244 72.7949L32.5485 74.09L33.8438 72.5657L32.3192 71.2706L31.0244 72.7949ZM29.5 74.5889L27.9759 75.8839L29.5 77.6775L31.0241 75.8839L29.5 74.5889ZM27.9756 72.7949L26.6808 71.2706L25.1562 72.5657L26.4515 74.09L27.9756 72.7949ZM27.9756 72.7939V74.7939H28.6652L29.2082 74.369L27.9756 72.7939ZM27.9746 72.7939L26.4501 74.0884L27.0491 74.7939H27.9746V72.7939ZM27.9717 72.79L26.4469 74.0843L26.4469 74.0843L27.9717 72.79ZM27.9609 72.7773L26.4357 74.071L26.4357 74.071L27.9609 72.7773ZM27.9189 72.7275L26.3928 74.0201L26.3928 74.0201L27.9189 72.7275ZM27.7549 72.5332L26.2267 73.8234L26.2267 73.8234L27.7549 72.5332ZM27.1328 71.7949L25.6004 73.0801L25.6004 73.0801L27.1328 71.7949ZM24.8877 69.0947L23.3451 70.3676L23.3451 70.3676L24.8877 69.0947ZM17.8047 60.3018L16.2312 61.5363L16.2312 61.5363L17.8047 60.3018ZM9.93945 49.8037L8.30313 50.9537L8.30313 50.9537L9.93945 49.8037ZM4.43262 40.8242L2.61042 41.6486L2.61043 41.6486L4.43262 40.8242ZM29.5 2V4C43.5833 4 55 15.4167 55 29.5H57H59C59 13.2076 45.7924 0 29.5 0V2ZM57 29.5H55C55 33.2431 54.1938 36.7979 52.7452 39.9998L54.5674 40.8242L56.3896 41.6486C58.068 37.9387 59 33.8227 59 29.5H57ZM54.5674 40.8242L52.7452 39.9998C51.7447 42.2113 49.7909 45.2861 47.4242 48.6537L49.0605 49.8037L50.6969 50.9537C53.074 47.5711 55.2211 44.2314 56.3896 41.6486L54.5674 40.8242ZM49.0605 49.8037L47.4242 48.6537C45.0574 52.0215 42.2771 55.6827 39.6218 59.0672L41.1953 60.3018L42.7688 61.5363C45.4464 58.1235 48.2739 54.4014 50.6969 50.9537L49.0605 49.8037ZM41.1953 60.3018L39.6218 59.0672C36.9665 62.4517 34.4362 65.5598 32.5697 67.8218L34.1123 69.0947L35.6549 70.3676C37.5354 68.0887 40.0875 64.9539 42.7688 61.5363L41.1953 60.3018ZM34.1123 69.0947L32.5697 67.8218C31.6363 68.953 30.8686 69.8732 30.3347 70.5098L31.8672 71.7949L33.3996 73.0801C33.9397 72.4361 34.7142 71.5077 35.6549 70.3676L34.1123 69.0947ZM31.8672 71.7949L30.3347 70.5098C30.0692 70.8264 29.8617 71.0716 29.717 71.243L31.2451 72.5332L32.7733 73.8234C32.915 73.6556 33.1286 73.4033 33.3996 73.0801L31.8672 71.7949ZM31.2451 72.5332L29.717 71.243C29.6427 71.3309 29.5908 71.3925 29.5549 71.435L31.0811 72.7275L32.6072 74.0201C32.6456 73.9748 32.7042 73.9052 32.7733 73.8234L31.2451 72.5332ZM31.0811 72.7275L29.5549 71.435C29.5434 71.4486 29.5335 71.4603 29.5261 71.4691C29.5222 71.4738 29.5196 71.4768 29.5172 71.4797C29.5161 71.481 29.5153 71.482 29.5146 71.4827C29.514 71.4834 29.5138 71.4837 29.5138 71.4837L31.0391 72.7773L32.5643 74.071C32.5725 74.0614 32.582 74.05 32.5873 74.0437C32.594 74.0358 32.6003 74.0283 32.6072 74.0201L31.0811 72.7275ZM31.0391 72.7773L29.5138 71.4837C29.5102 71.4879 29.5072 71.4914 29.5052 71.4938C29.5041 71.4951 29.5037 71.4957 29.5032 71.4962C29.5027 71.4968 29.503 71.4965 29.5035 71.4958L31.0283 72.79L32.5531 74.0843C32.5549 74.0821 32.5565 74.0802 32.5576 74.079C32.5586 74.0778 32.5598 74.0764 32.5605 74.0756C32.5621 74.0737 32.5632 74.0724 32.5643 74.071L31.0391 72.7773ZM31.0283 72.79L29.5035 71.4958C29.487 71.5153 29.4725 71.5331 29.4603 71.5485C29.4481 71.5639 29.4376 71.5777 29.429 71.5891C29.4204 71.6006 29.4132 71.6104 29.4077 71.6179C29.4024 71.6253 29.3982 71.6312 29.396 71.6342C29.3949 71.6358 29.394 71.637 29.3938 71.6373C29.3933 71.6381 29.3939 71.6371 29.3944 71.6365C29.395 71.6357 29.3963 71.6338 29.398 71.6314C29.3998 71.6289 29.4023 71.6253 29.4055 71.621C29.4086 71.6167 29.4127 71.6111 29.4175 71.6045C29.4224 71.598 29.4285 71.5898 29.4357 71.5804C29.4428 71.571 29.4518 71.5595 29.4622 71.5464C29.4726 71.5334 29.4856 71.5174 29.5008 71.4994L31.0254 72.7939L32.5499 74.0884C32.5653 74.0704 32.5784 74.0543 32.5888 74.0412C32.5994 74.028 32.6084 74.0163 32.6156 74.0069C32.6229 73.9973 32.6291 73.989 32.6341 73.9823C32.639 73.9756 32.6432 73.9698 32.6464 73.9654C32.6497 73.9609 32.6523 73.9572 32.6542 73.9546C32.656 73.952 32.6575 73.95 32.6582 73.949C32.6587 73.9482 32.6595 73.9471 32.6591 73.9477C32.659 73.9478 32.6583 73.9489 32.6573 73.9503C32.6554 73.953 32.6514 73.9585 32.6463 73.9656C32.6412 73.9727 32.6342 73.9821 32.6259 73.9932C32.6176 74.0043 32.6073 74.0177 32.5954 74.0327C32.5835 74.0477 32.5694 74.0651 32.5531 74.0843L31.0283 72.79ZM31.0254 72.7939V70.7939H31.0244V72.7939V74.7939H31.0254V72.7939ZM31.0244 72.7939L32.257 71.2189C32.2952 71.2488 32.3348 71.283 32.277 71.2341C32.2468 71.2085 32.1915 71.1616 32.0908 71.0762C31.8897 70.9056 31.5103 70.5835 30.7948 69.9757L29.5 71.5L28.2052 73.0243C29.5976 74.207 29.7442 74.3317 29.7918 74.369L31.0244 72.7939ZM29.5 71.5L28.2052 73.0243L29.7296 74.3192L31.0244 72.7949L32.3192 71.2706L30.7948 69.9757L29.5 71.5ZM31.0244 72.7949L29.5004 71.4998L27.9759 73.2938L29.5 74.5889L31.0241 75.8839L32.5485 74.09L31.0244 72.7949ZM29.5 74.5889L31.0241 73.2938L29.4996 71.4998L27.9756 72.7949L26.4515 74.09L27.9759 75.8839L29.5 74.5889ZM27.9756 72.7949L29.2704 74.3192L30.7948 73.0243L29.5 71.5L28.2052 69.9757L26.6808 71.2706L27.9756 72.7949ZM29.5 71.5L28.2052 69.9757C27.4897 70.5835 27.1103 70.9056 26.9092 71.0762C26.8085 71.1616 26.7532 71.2085 26.723 71.2341C26.6652 71.283 26.7048 71.2488 26.743 71.2189L27.9756 72.7939L29.2082 74.369C29.2558 74.3317 29.4024 74.207 30.7948 73.0243L29.5 71.5ZM27.9756 72.7939V70.7939H27.9746V72.7939V74.7939H27.9756V72.7939ZM27.9746 72.7939L29.4992 71.4994C29.5144 71.5174 29.5274 71.5334 29.5378 71.5464C29.5482 71.5595 29.5572 71.571 29.5643 71.5804C29.5715 71.5898 29.5776 71.598 29.5825 71.6045C29.5873 71.6111 29.5914 71.6167 29.5945 71.621C29.5977 71.6253 29.6002 71.6289 29.602 71.6314C29.6037 71.6338 29.605 71.6357 29.6056 71.6365C29.6061 71.6371 29.6067 71.6381 29.6062 71.6373C29.606 71.637 29.6051 71.6358 29.604 71.6342C29.6018 71.6312 29.5976 71.6253 29.5923 71.6179C29.5868 71.6104 29.5796 71.6006 29.571 71.5891C29.5624 71.5777 29.5519 71.5639 29.5397 71.5485C29.5275 71.5331 29.513 71.5153 29.4965 71.4958L27.9717 72.79L26.4469 74.0843C26.4306 74.0651 26.4165 74.0477 26.4046 74.0327C26.3927 74.0177 26.3824 74.0043 26.3741 73.9932C26.3658 73.9821 26.3588 73.9727 26.3537 73.9656C26.3486 73.9585 26.3446 73.953 26.3427 73.9503C26.3417 73.9489 26.341 73.9478 26.3409 73.9477C26.3405 73.9471 26.3413 73.9482 26.3418 73.949C26.3425 73.95 26.344 73.952 26.3458 73.9546C26.3477 73.9572 26.3503 73.9609 26.3536 73.9654C26.3568 73.9698 26.361 73.9756 26.3659 73.9823C26.3709 73.989 26.3771 73.9973 26.3844 74.0069C26.3916 74.0163 26.4006 74.028 26.4112 74.0412C26.4216 74.0543 26.4347 74.0704 26.4501 74.0884L27.9746 72.7939ZM27.9717 72.79L29.4965 71.4958C29.497 71.4965 29.4973 71.4968 29.4968 71.4962C29.4963 71.4957 29.4959 71.4951 29.4948 71.4938C29.4928 71.4914 29.4898 71.4879 29.4862 71.4837L27.9609 72.7773L26.4357 74.071C26.4368 74.0724 26.4379 74.0737 26.4395 74.0756C26.4402 74.0764 26.4414 74.0778 26.4424 74.079C26.4435 74.0802 26.4451 74.0821 26.4469 74.0843L27.9717 72.79ZM27.9609 72.7773L29.4862 71.4837C29.4862 71.4837 29.486 71.4834 29.4854 71.4827C29.4847 71.482 29.4839 71.481 29.4828 71.4797C29.4804 71.4768 29.4778 71.4738 29.4739 71.4691C29.4665 71.4603 29.4566 71.4486 29.4451 71.435L27.9189 72.7275L26.3928 74.0201C26.3997 74.0283 26.406 74.0358 26.4127 74.0437C26.418 74.05 26.4275 74.0614 26.4357 74.071L27.9609 72.7773ZM27.9189 72.7275L29.4451 71.435C29.4092 71.3925 29.3573 71.3309 29.283 71.243L27.7549 72.5332L26.2267 73.8234C26.2958 73.9052 26.3544 73.9748 26.3928 74.0201L27.9189 72.7275ZM27.7549 72.5332L29.283 71.243C29.1383 71.0716 28.9308 70.8264 28.6653 70.5098L27.1328 71.7949L25.6004 73.0801C25.8714 73.4033 26.085 73.6556 26.2267 73.8234L27.7549 72.5332ZM27.1328 71.7949L28.6653 70.5098C28.1314 69.8732 27.3637 68.953 26.4303 67.8218L24.8877 69.0947L23.3451 70.3676C24.2858 71.5077 25.0603 72.4361 25.6004 73.0801L27.1328 71.7949ZM24.8877 69.0947L26.4303 67.8218C24.5638 65.5598 22.0335 62.4517 19.3782 59.0672L17.8047 60.3018L16.2312 61.5363C18.9125 64.9539 21.4646 68.0887 23.3451 70.3676L24.8877 69.0947ZM17.8047 60.3018L19.3782 59.0672C16.7229 55.6827 13.9426 52.0215 11.5758 48.6537L9.93945 49.8037L8.30313 50.9537C10.7261 54.4014 13.5536 58.1235 16.2312 61.5363L17.8047 60.3018ZM9.93945 49.8037L11.5758 48.6537C9.20907 45.2861 7.25532 42.2113 6.2548 39.9998L4.43262 40.8242L2.61043 41.6486C3.77895 44.2314 5.92595 47.5711 8.30313 50.9537L9.93945 49.8037ZM4.43262 40.8242L6.25481 39.9998C4.80622 36.7979 4 33.2431 4 29.5H2H0C0 33.8227 0.932017 37.9387 2.61042 41.6486L4.43262 40.8242ZM2 29.5H4C4 15.4167 15.4167 4 29.5 4V2V0C13.2076 0 0 13.2076 0 29.5H2ZM29.5 9V7C17.0736 7 7 17.0736 7 29.5H9H11C11 19.2827 19.2827 11 29.5 11V9ZM9 29.5H7C7 41.9264 17.0736 52 29.5 52V50V48C19.2827 48 11 39.7173 11 29.5H9ZM29.5 50V52C41.9264 52 52 41.9264 52 29.5H50H48C48 39.7173 39.7173 48 29.5 48V50ZM50 29.5H52C52 17.0736 41.9264 7 29.5 7V9V11C39.7173 11 48 19.2827 48 29.5H50Z" fill="black" mask="url(#path-1-outside-1_474_160)"/>
</g>
<defs>
<clipPath id="clip0_474_160">
<rect width="59" height="78" fill="white"/>
</clipPath>
</defs>
</svg>
